<svg xmlns="http://www.w3.org/2000/svg" viewBox="0 0 503 397"><path d="M 169 37 L 170 37 L 169 38 L 170 38 L 175 45 L 176 45 L 176 46 L 175 46 L 168 51 L 167 51 L 167 52 L 168 52 L 173 59 L 174 59 L 174 60 L 173 60 L 166 65 L 165 65 L 165 64 L 160 56 L 155 55 L 150 54 L 149 54 L 148 61 L 143 60 L 142 60 L 143 53 L 137 52 L 130 51 L 123 50 L 118 49 L 112 48 L 111 48 L 107 48 L 107 47 L 103 47 L 98 46 L 97 46 L 93 45 L 92 45 L 91 45 L 90 45 L 89 45 L 88 45 L 87 45 L 86 45 L 85 45 L 84 45 L 83 45 L 80 46 L 79 46 L 77 47 L 76 47 L 74 48 L 73 48 L 72 49 L 71 55 L 63 58 L 62 58 L 62 59 L 61 60 L 60 62 L 59 64 L 58 66 L 57 67 L 57 68 L 57 79 L 64 79 L 65 79 L 66 79 L 67 79 L 68 79 L 81 84 L 81 83 L 82 82 L 82 81 L 91 86 L 92 81 L 93 81 L 93 80 L 94 79 L 95 75 L 109 55 L 110 55 L 116 56 L 122 57 L 103 81 L 104 85 L 104 86 L 104 87 L 104 88 L 105 95 L 105 96 L 105 97 L 105 98 L 105 99 L 105 100 L 106 107 L 106 108 L 106 109 L 106 113 L 107 113 L 107 114 L 106 114 L 107 117 L 117 124 L 122 125 L 127 126 L 134 127 L 141 128 L 142 128 L 146 129 L 147 129 L 152 130 L 153 130 L 158 131 L 159 131 L 165 132 L 171 133 L 172 133 L 177 134 L 183 135 L 184 135 L 190 136 L 191 136 L 195 137 L 196 137 L 200 138 L 204 139 L 208 140 L 210 141 L 211 141 L 213 142 L 215 143 L 217 144 L 219 145 L 220 146 L 221 146 L 222 147 L 224 148 L 226 149 L 228 150 L 210 69 L 209 69 L 208 69 L 180 67 L 179 67 L 181 54 L 181 53 L 183 40 L 183 39 L 184 39 L 184 40 L 182 53 L 182 54 L 188 60 L 195 61 L 201 62 L 202 62 L 203 62 L 207 63 L 208 63 L 209 63 L 215 65 L 215 66 L 216 66 L 217 66 L 218 66 L 219 66 L 220 66 L 221 66 L 222 66 L 223 66 L 224 66 L 228 67 L 229 67 L 228 66 L 229 66 L 230 66 L 230 67 L 231 67 L 232 67 L 233 67 L 234 67 L 235 67 L 236 67 L 241 68 L 242 68 L 243 68 L 244 68 L 248 68 L 248 69 L 252 69 L 258 70 L 259 70 L 265 71 L 266 71 L 272 72 L 276 73 L 276 72 L 277 72 L 277 73 L 281 73 L 285 73 L 285 74 L 289 74 L 290 74 L 295 75 L 296 75 L 302 76 L 303 76 L 304 76 L 308 76 L 308 77 L 311 77 L 312 77 L 318 78 L 319 78 L 320 78 L 325 79 L 326 79 L 327 79 L 333 80 L 334 80 L 341 81 L 348 82 L 349 82 L 354 83 L 355 83 L 359 84 L 360 84 L 366 85 L 367 85 L 370 85 L 370 86 L 374 86 L 379 87 L 385 88 L 390 89 L 391 89 L 397 90 L 403 91 L 404 91 L 408 92 L 414 93 L 419 94 L 420 94 L 424 95 L 428 96 L 435 107 L 435 108 L 434 113 L 438 125 L 441 135 L 442 135 L 441 138 L 441 139 L 440 142 L 440 143 L 439 146 L 438 149 L 437 152 L 436 154 L 436 155 L 435 156 L 435 157 L 434 159 L 433 161 L 432 163 L 431 165 L 430 167 L 429 168 L 429 169 L 428 170 L 428 171 L 427 171 L 427 172 L 426 173 L 426 174 L 425 175 L 424 177 L 423 178 L 422 180 L 421 181 L 421 182 L 420 183 L 419 185 L 418 186 L 417 188 L 416 189 L 416 190 L 415 191 L 414 193 L 413 194 L 412 196 L 411 197 L 411 198 L 410 199 L 409 200 L 409 201 L 408 202 L 408 203 L 407 204 L 406 205 L 406 206 L 405 207 L 404 209 L 403 210 L 403 211 L 402 212 L 401 213 L 401 214 L 400 215 L 399 217 L 398 218 L 398 219 L 397 220 L 396 222 L 395 223 L 394 225 L 393 226 L 393 227 L 392 228 L 391 230 L 390 231 L 390 232 L 389 233 L 388 234 L 388 235 L 387 236 L 386 238 L 385 239 L 384 241 L 383 242 L 383 243 L 382 244 L 381 245 L 381 246 L 380 247 L 379 249 L 378 250 L 378 251 L 377 252 L 376 253 L 375 255 L 374 256 L 374 257 L 373 258 L 372 259 L 371 261 L 370 262 L 369 264 L 368 265 L 367 266 L 366 268 L 365 269 L 365 270 L 364 271 L 363 272 L 362 273 L 362 274 L 361 274 L 361 275 L 360 276 L 360 277 L 359 277 L 359 278 L 358 279 L 357 280 L 357 281 L 356 281 L 356 282 L 355 283 L 341 252 L 341 248 L 342 248 L 342 244 L 337 231 L 335 230 L 334 229 L 332 228 L 331 227 L 329 226 L 328 225 L 318 214 L 317 212 L 316 209 L 315 207 L 315 206 L 314 204 L 304 195 L 301 194 L 300 194 L 295 193 L 294 193 L 289 192 L 288 192 L 283 191 L 278 190 L 277 190 L 271 189 L 268 188 L 255 172 L 254 170 L 246 160 L 245 159 L 244 159 L 243 158 L 241 157 L 239 156 L 237 155 L 236 154 L 234 153 L 232 152 L 230 151 L 235 154 L 255 173 L 256 175 L 256 176 L 257 178 L 267 188 L 340 259 L 340 260 L 339 265 L 339 266 L 339 267 L 338 271 L 338 272 L 338 273 L 338 274 L 337 279 L 336 286 L 336 287 L 335 292 L 335 293 L 335 294 L 334 299 L 334 300 L 333 306 L 333 307 L 333 310 L 332 310 L 332 314 L 356 294 L 357 295 L 358 295 L 359 296 L 361 297 L 366 307 L 362 308 L 361 308 L 360 309 L 359 310 L 358 310 L 357 311 L 356 312 L 355 312 L 354 313 L 353 314 L 351 315 L 350 316 L 349 316 L 349 317 L 348 317 L 347 318 L 346 319 L 345 319 L 344 320 L 343 321 L 342 321 L 342 322 Z" stroke="cyan" fill="none" stroke-width="2"/></svg>