<svg xmlns="http://www.w3.org/2000/svg" viewBox="0 0 963 602">
<path d="M 374.56,317.48 L 365.43,320.15 L 356.50,322.73 L 347.84,325.41 L 339.12,327.93 L 330.43,330.52 L 321.76,333.14 L 313.02,335.62 L 304.36,338.29 L 295.59,340.67 L 286.80,343.03 L 278.01,345.37 L 269.27,347.84 L 260.60,350.47 L 251.91,353.05 L 243.19,355.58 L 234.53,358.25 L 225.87,360.91 L 217.27,363.70 L 208.33,365.70 L 199.77,364.99 L 192.57,360.77 L 187.11,353.68 L 182.33,345.90 L 177.33,338.21 L 172.07,330.62 L 166.82,323.04 L 161.49,315.49 L 156.00,308.00 L 150.51,300.51 L 145.02,293.02 L 139.53,285.53 L 134.04,278.04 L 128.55,270.55 L 123.07,263.07 L 117.58,255.58 L 112.32,247.99 L 107.13,240.38 L 102.11,232.70 L 97.10,225.01 L 92.25,217.25 L 87.47,209.47 L 82.72,201.68 L 78.18,193.80 L 73.63,185.92 L 69.29,177.96 L 64.98,169.98 L 60.91,161.91 L 56.83,153.83 L 52.86,145.71 L 48.92,137.58 L 45.32,129.31 L 41.65,121.07 L 37.92,112.86 L 33.61,104.88 L 29.02,97.02 L 24.00,89.33 L 18.75,81.75 L 13.02,74.36 L 7.06,67.06 L 0.87,59.87 L -5.33,52.67 L -11.76,45.57 L -18.19,38.47 L -24.86,31.47 L -31.53,24.47 L -38.43,17.57 L -45.33,10.67 L -52.33,4.00 L -59.33,-2.67 L -66.43,-9.10 L -73.29,-15.82 L -76.48,-22.74 L -74.48,-28.72 L -67.43,-33.18 L -58.62,-35.49 L -49.48,-37.00 L -40.13,-38.00 L -30.79,-39.00 L -21.30,-39.67 L -11.68,-40.00 L -2.00,-39.80 L 7.63,-39.47 L 17.11,-38.80 L 26.54,-38.00 L 35.89,-37.00 L 45.24,-36.00 L 54.59,-35.00 L 63.80,-33.67 L 73.01,-32.33 L 82.08,-30.67 L 91.15,-29.00 L 100.08,-27.00 L 109.12,-25.25 L 118.19,-23.58 L 127.26,-21.91 L 136.37,-20.33 L 145.58,-19.00 L 154.93,-18.00 L 164.28,-17.00 L 173.63,-16.00 L 182.97,-15.00 L 192.32,-14.00 L 201.81,-13.33 L 211.29,-12.67 L 220.78,-12.00 L 230.26,-11.33 L 239.75,-10.67 L 249.37,-10.33 L 258.86,-9.67 L 268.48,-9.33 L 277.97,-8.67 L 287.59,-8.33 L 297.08,-7.67 L 306.71,-7.33 L 316.12,-6.51 L 324.93,-4.18 L 330.82,1.25 L 332.70,9.05 L 330.49,17.61 L 326.11,25.56 L 320.38,32.95 L 313.95,40.05 L 306.86,46.48 L 299.56,52.44 L 291.88,57.46 L 284.00,62.00 L 275.77,65.69 L 267.11,68.36 L 258.03,70.00 L 248.54,70.67 L 238.92,71.00 L 229.29,70.67 L 219.81,70.00 L 210.32,69.33 L 200.90,68.51 L 191.55,67.51 L 182.34,66.18 L 173.20,64.67 L 164.02,63.28 L 154.94,61.62 L 145.60,60.62 L 136.50,61.00 L 127.66,63.22 L 119.58,67.28 L 112.17,72.49 L 106.06,79.14 L 101.78,86.93 L 99.33,95.68 L 98.72,104.87 L 99.72,113.94 L 102.59,122.51 L 106.67,130.59 L 111.39,138.39 L 116.17,146.17 L 120.72,154.05 L 125.33,161.91 L 129.87,169.79 L 134.66,177.57 L 139.14,185.47 L 144.39,193.06 L 150.64,199.64 L 158.40,204.50 L 166.83,207.71 L 175.92,209.33 L 185.09,209.25 L 193.89,206.91 L 201.82,202.51 L 209.12,196.55 L 215.88,189.78 L 222.31,182.69 L 228.51,175.49 L 235.04,168.63 L 242.10,162.57 L 249.78,157.55 L 257.95,153.71 L 266.43,150.61 L 275.19,148.19 L 284.18,146.33 L 293.39,145.00 L 302.88,144.33 L 312.50,144.00 L 322.13,143.67 L 331.75,143.33 L 341.37,143.00 L 351.05,142.79 L 360.67,142.45 L 370.30,142.12 L 380.01,142.00 L 389.63,141.67 L 399.26,141.33 L 408.88,141.00 L 418.51,140.67 L 428.13,140.33 L 437.62,139.67 L 447.24,139.33 L 456.86,139.00 L 466.49,138.67 L 476.11,138.33 L 485.60,137.67 L 495.22,137.33 L 504.71,136.67 L 514.19,136.67 L 523.36,137.45 L 532.00,140.15 L 539.82,144.82 L 546.08,151.41 L 550.70,159.26 L 554.03,167.64 L 556.67,176.31 L 559.25,185.00 L 561.71,193.75 L 564.38,202.40 L 567.04,211.06 L 569.57,219.78 L 571.57,228.71 L 571.81,237.66 L 568.88,245.74 L 563.03,252.30 L 555.45,257.55 L 547.51,261.96 L 539.44,266.04 L 531.15,269.59 L 522.74,272.86 L 514.25,275.93 L 505.71,278.88 L 497.08,281.61 L 488.42,284.28 L 479.76,286.94 L 471.17,289.76 L 462.51,292.43 L 453.85,295.09 L 445.13,297.60 L 436.47,300.26 L 427.71,302.69 L 419.05,305.36 L 410.26,307.69 L 401.59,310.33 L 392.80,312.67 L 383.83,315.16 Z" fill="none" stroke="red" stroke-width="4" />
</svg>