<svg xmlns="http://www.w3.org/2000/svg" viewBox="0 0 955.8 511.9">
<path d="M 689.74,205.62 L 694.83,204.53 L 699.93,203.43 L 705.02,202.34 L 710.11,201.25 L 715.19,200.12 L 720.28,199.03 L 725.39,197.96 L 730.52,196.96 L 735.65,195.96 L 740.78,194.96 L 745.91,193.96 L 751.04,192.96 L 756.17,191.96 L 761.30,190.96 L 766.43,189.96 L 771.56,188.96 L 776.70,187.96 L 781.83,186.96 L 786.96,185.96 L 792.09,184.96 L 797.22,183.96 L 802.35,182.96 L 807.48,181.96 L 812.61,180.96 L 817.74,179.96 L 822.88,178.96 L 828.01,177.96 L 833.14,176.96 L 838.27,176.63 L 843.49,176.21 L 848.80,175.70 L 854.20,174.44 L 859.60,173.18 L 865.00,171.92 L 870.28,170.51 L 875.34,168.86 L 880.31,167.29 L 885.30,165.96 L 890.43,164.96 L 895.56,163.96 L 900.65,162.86 L 905.64,161.53 L 910.42,159.66 L 914.65,156.84 L 917.81,152.97 L 919.61,148.17 L 919.94,143.04 L 919.40,137.82 L 918.31,132.73 L 916.97,127.74 L 915.64,122.74 L 914.40,117.71 L 913.28,112.63 L 912.13,107.56 L 910.79,102.57 L 909.58,97.52 L 908.40,92.47 L 907.22,87.41 L 905.89,82.42 L 904.56,77.42 L 903.40,72.36 L 902.40,67.23 L 901.17,62.19 L 899.83,57.20 L 898.50,52.21 L 897.40,47.12 L 896.38,42.00 L 895.04,37.00 L 893.71,32.01 L 891.91,27.21 L 889.35,22.92 L 885.31,20.24 L 880.25,19.06 L 874.89,19.29 L 869.62,19.96 L 864.49,20.96 L 859.36,21.96 L 854.23,22.96 L 849.10,23.96 L 843.96,24.96 L 838.83,25.96 L 833.70,26.96 L 828.57,27.96 L 823.44,28.96 L 818.31,29.96 L 813.18,30.96 L 808.05,31.96 L 802.92,32.96 L 797.78,33.96 L 792.65,34.96 L 787.52,35.96 L 782.39,36.96 L 777.26,37.96 L 772.13,38.96 L 767.00,39.96 L 761.87,40.96 L 756.74,41.96 L 751.60,42.96 L 746.48,43.97 L 741.37,45.02 L 736.27,46.09 L 731.17,47.19 L 726.16,48.48 L 721.14,49.73 L 716.10,50.96 L 710.97,51.96 L 705.84,52.96 L 700.71,53.96 L 695.58,54.96 L 690.45,55.96 L 685.31,56.96 L 680.18,57.96 L 675.05,58.96 L 669.92,59.96 L 664.79,60.96 L 659.66,61.96 L 654.53,62.96 L 649.41,63.99 L 644.30,65.06 L 639.21,66.15 L 634.12,67.24 L 629.03,68.33 L 623.93,69.43 L 618.84,70.52 L 613.65,71.38 L 608.46,72.23 L 603.37,73.33 L 598.47,74.89 L 593.96,77.40 L 590.27,80.83 L 588.36,85.43 L 588.25,90.38 L 589.25,95.51 L 590.58,100.50 L 591.91,105.50 L 593.24,110.49 L 594.40,115.56 L 595.73,120.55 L 597.07,125.54 L 598.40,130.53 L 599.40,135.67 L 600.40,140.80 L 600.71,145.92 L 599.28,150.40 L 596.05,154.08 L 591.64,156.82 L 587.02,159.06 L 582.29,161.03 L 577.39,162.59 L 572.41,163.95 L 567.32,165.05 L 562.22,166.14 L 557.13,167.23 L 552.04,168.32 L 546.95,169.41 L 541.85,170.51 L 536.76,171.60 L 531.69,172.75 L 526.61,173.87 L 521.62,175.20 L 516.62,176.53 L 511.71,178.07 L 506.76,179.50 L 501.84,181.00 L 496.90,182.46 L 491.96,183.93 L 487.03,185.42 L 482.18,187.09 L 477.28,188.65 L 472.41,190.28 L 467.51,191.85 L 462.65,193.48 L 457.81,195.19 L 452.91,196.75 L 448.05,198.42 L 443.20,200.09 L 438.93,202.69 L 435.68,206.35 L 434.00,211.20 L 433.40,216.49 L 433.02,221.88 L 431.56,226.82 L 428.70,230.99 L 424.73,234.30 L 420.23,236.85 L 415.63,239.12 L 411.03,241.39 L 406.45,243.72 L 401.81,245.93 L 397.11,247.96 L 392.47,250.13 L 387.79,252.24 L 383.19,254.51 L 378.54,256.67 L 373.92,258.90 L 369.22,260.96 L 364.57,263.10 L 359.88,265.18 L 355.27,267.43 L 350.56,269.46 L 345.95,271.72 L 341.27,273.81 L 336.62,275.96 L 331.90,277.96 L 327.19,279.96 L 322.47,281.96 L 317.75,283.96 L 313.04,285.96 L 308.32,287.96 L 303.60,289.96 L 298.61,291.29 L 294.02,290.78 L 290.53,287.95 L 288.88,283.27 L 288.40,277.92 L 288.07,272.51 L 287.73,267.11 L 287.40,261.70 L 287.40,256.15 L 287.19,250.70 L 286.52,245.43 L 284.78,240.80 L 281.78,237.01 L 277.52,234.55 L 272.63,232.96 L 267.60,231.72 L 262.68,230.21 L 257.97,228.21 L 253.54,225.67 L 250.04,222.16 L 247.44,217.88 L 245.77,213.02 L 244.20,208.13 L 242.07,203.66 L 238.82,200.05 L 234.33,197.96 L 229.31,197.38 L 224.07,197.96 L 219.00,199.10 L 214.01,200.43 L 209.01,201.77 L 203.96,202.96 L 198.90,204.13 L 193.91,205.46 L 188.91,206.79 L 183.85,207.96 L 178.72,208.96 L 173.73,210.29 L 168.73,211.63 L 163.74,212.96 L 158.61,213.96 L 153.48,214.97 L 148.47,216.25 L 143.47,217.56 L 138.47,218.88 L 133.36,219.94 L 128.27,221.03 L 123.27,222.36 L 118.39,223.96 L 113.65,225.90 L 108.95,227.93 L 104.34,230.20 L 99.78,232.58 L 95.37,235.32 L 91.06,238.30 L 86.84,241.52 L 82.73,244.97 L 78.71,248.65 L 75.02,252.67 L 71.57,256.79 L 68.44,261.03 L 65.47,265.35 L 62.81,269.79 L 60.46,274.36 L 58.38,279.05 L 56.38,283.76 L 54.40,288.49 L 52.41,293.21 L 50.74,298.06 L 49.12,302.94 L 47.78,307.93 L 46.44,312.92 L 45.40,318.03 L 44.56,323.23 L 43.89,328.50 L 43.56,333.91 L 43.40,339.39 L 43.07,344.79 L 42.73,350.20 L 42.07,355.47 L 41.40,360.74 L 40.40,365.87 L 39.40,371.00 L 38.40,376.13 L 37.40,381.26 L 36.40,386.39 L 35.73,391.66 L 35.40,397.07 L 35.92,402.40 L 37.25,407.39 L 39.68,411.93 L 42.99,415.91 L 46.89,419.45 L 51.11,422.67 L 55.32,425.88 L 59.53,429.09 L 63.75,432.31 L 67.96,435.52 L 72.17,438.74 L 76.39,441.95 L 80.60,445.17 L 84.77,448.50 L 88.96,451.77 L 93.17,454.98 L 97.44,458.07 L 101.67,461.23 L 105.89,464.45 L 110.10,467.66 L 114.32,470.88 L 118.53,474.09 L 122.74,477.30 L 127.06,480.28 L 131.37,483.26 L 135.75,486.07 L 140.06,489.05 L 144.68,491.29 L 149.51,492.23 L 154.21,490.86 L 158.27,487.76 L 161.49,483.54 L 164.23,479.13 L 166.73,474.63 L 169.13,470.07 L 171.40,465.47 L 173.67,460.86 L 176.06,456.30 L 178.80,451.90 L 181.78,447.58 L 185.06,443.40 L 188.51,439.28 L 192.19,435.26 L 196.14,431.55 L 200.26,428.10 L 204.38,424.65 L 208.52,421.27 L 212.74,418.06 L 217.05,415.08 L 221.43,412.27 L 225.83,409.50 L 230.24,406.76 L 234.65,404.02 L 239.07,401.29 L 243.57,398.79 L 248.08,396.28 L 252.59,393.77 L 257.09,391.27 L 261.56,388.66 L 265.97,385.92 L 270.28,382.94 L 274.44,379.59 L 278.22,375.81 L 281.67,371.69 L 284.65,367.38 L 287.23,362.90 L 289.40,358.25 L 291.40,353.54 L 293.37,348.81 L 295.37,344.09 L 297.67,339.50 L 300.41,335.09 L 303.76,330.93 L 307.54,327.15 L 311.73,323.86 L 316.14,321.12 L 320.64,318.61 L 325.22,316.27 L 329.83,314.00 L 334.43,311.73 L 339.01,309.40 L 343.61,307.13 L 348.22,304.86 L 352.91,302.79 L 357.51,300.52 L 362.15,298.32 L 366.75,296.05 L 371.36,293.78 L 375.93,291.44 L 380.52,289.12 L 385.12,286.85 L 389.72,284.56 L 394.30,282.23 L 398.90,279.96 L 403.51,277.69 L 408.09,275.35 L 412.69,273.07 L 417.29,270.80 L 421.87,268.47 L 426.45,266.14 L 431.10,263.97 L 435.70,261.69 L 440.28,259.36 L 444.84,256.99 L 449.53,254.93 L 454.39,253.26 L 459.29,251.69 L 464.39,250.63 L 469.48,249.54 L 474.67,248.69 L 479.77,247.59 L 484.86,246.50 L 489.95,245.41 L 495.05,244.31 L 500.14,243.22 L 505.23,242.13 L 510.33,241.04 L 515.43,239.99 L 520.55,238.96 L 525.69,237.96 L 530.82,236.96 L 535.95,235.96 L 541.08,234.96 L 546.22,233.97 L 551.35,232.97 L 556.48,231.97 L 561.60,230.96 L 566.73,229.96 L 571.87,228.96 L 577.00,227.96 L 582.13,226.96 L 587.26,225.96 L 592.39,224.96 L 597.52,223.96 L 602.65,222.96 L 607.78,221.96 L 612.91,220.96 L 618.05,219.96 L 623.18,218.96 L 628.31,217.96 L 633.44,216.96 L 638.57,215.96 L 643.70,214.96 L 648.78,213.83 L 653.91,212.83 L 659.04,211.83 L 664.23,210.96 L 669.25,209.70 L 674.36,208.65 L 679.46,207.57 L 684.65,206.71 Z" fill="none" stroke="red" stroke-width="4"/>
</svg>