<svg xmlns="http://www.w3.org/2000/svg" viewBox="0 0 1083.2 663.1">
<path d="M 941.47,636.21 L 933.17,635.70 L 924.72,634.27 L 916.45,632.42 L 908.24,630.13 L 900.26,627.27 L 892.42,624.11 L 884.65,620.75 L 876.91,617.34 L 869.30,613.60 L 861.82,609.56 L 854.49,605.13 L 847.24,600.54 L 840.13,595.58 L 833.11,590.42 L 826.18,585.06 L 819.37,579.39 L 812.64,573.52 L 806.06,567.50 L 799.66,561.25 L 793.41,554.85 L 787.40,548.26 L 781.60,541.51 L 776.03,534.66 L 770.67,527.72 L 765.40,520.74 L 760.25,513.72 L 755.29,506.62 L 750.33,499.52 L 745.50,492.36 L 740.64,485.22 L 735.78,478.07 L 730.92,470.93 L 725.96,463.82 L 720.79,456.81 L 715.43,449.87 L 709.68,443.26 L 703.60,437.04 L 697.19,431.21 L 690.40,425.92 L 683.31,421.12 L 676.00,416.66 L 668.50,412.66 L 660.88,408.96 L 653.17,405.44 L 645.36,402.20 L 637.50,399.06 L 629.57,396.11 L 621.54,393.37 L 613.42,390.89 L 605.21,388.60 L 596.94,386.46 L 588.58,384.52 L 580.13,382.81 L 571.63,381.52 L 563.07,380.93 L 554.60,380.99 L 546.21,381.70 L 537.94,383.27 L 529.85,385.56 L 521.98,388.67 L 514.27,392.16 L 506.70,395.99 L 499.16,399.90 L 491.66,403.92 L 484.19,407.98 L 476.69,411.99 L 469.13,415.84 L 461.55,419.63 L 453.86,423.18 L 446.09,426.55 L 438.24,429.69 L 430.26,432.53 L 422.16,435.09 L 413.97,437.41 L 405.70,439.55 L 397.39,441.61 L 389.06,443.61 L 380.73,445.60 L 372.37,447.53 L 364.04,449.53 L 355.65,451.39 L 347.27,453.25 L 338.88,455.10 L 330.43,456.82 L 321.98,458.25 L 313.61,458.99 L 305.28,459.85 L 297.07,460.99 L 288.80,461.99 L 281.05,461.75 L 273.59,460.75 L 266.13,460.04 L 258.78,460.45 L 251.56,461.16 L 244.45,462.17 L 237.59,463.75 L 230.37,467.00 L 223.11,471.58 L 216.04,476.61 L 208.94,481.57 L 201.83,486.52 L 194.73,491.48 L 187.58,496.34 L 180.44,501.20 L 173.26,505.99 L 166.08,510.75 L 158.89,515.50 L 151.70,520.26 L 144.48,524.92 L 137.27,529.62 L 130.05,534.31 L 122.82,538.97 L 115.59,543.61 L 108.36,548.26 L 101.10,552.84 L 93.87,557.49 L 86.62,562.11 L 79.30,566.53 L 71.79,570.52 L 64.24,573.22 L 57.60,574.02 L 52.71,573.17 L 49.36,570.52 L 47.58,566.15 L 47.41,560.16 L 48.91,552.90 L 52.07,545.15 L 55.81,537.54 L 59.35,529.85 L 62.98,522.20 L 66.52,514.51 L 70.11,506.84 L 73.84,499.23 L 77.62,491.63 L 81.57,484.11 L 85.52,476.59 L 89.66,469.15 L 94.12,461.84 L 98.84,454.64 L 103.81,447.54 L 109.08,440.56 L 114.64,433.71 L 120.65,427.13 L 126.84,420.70 L 133.09,414.30 L 139.39,408.00 L 145.79,401.75 L 152.13,395.55 L 158.51,389.45 L 164.75,383.21 L 170.95,376.88 L 177.25,370.58 L 183.60,364.22 L 189.94,357.94 L 196.30,351.58 L 202.51,345.08 L 208.63,338.54 L 214.39,331.86 L 219.79,325.02 L 225.00,318.10 L 230.01,311.02 L 235.02,304.02 L 240.20,297.26 L 245.72,290.89 L 251.77,285.11 L 258.41,280.04 L 265.54,275.76 L 273.14,272.21 L 281.07,269.23 L 289.09,266.49 L 297.10,263.72 L 305.01,260.72 L 312.78,257.36 L 320.34,253.51 L 327.68,249.12 L 334.80,244.20 L 341.82,239.04 L 348.79,233.75 L 355.77,228.51 L 362.72,223.17 L 369.65,217.80 L 376.63,212.54 L 383.63,207.32 L 390.64,202.16 L 397.67,197.02 L 404.69,191.86 L 411.75,186.79 L 418.85,181.83 L 426.03,177.06 L 433.30,172.48 L 440.65,168.13 L 448.15,164.12 L 455.75,160.37 L 463.48,156.92 L 471.29,153.67 L 479.19,150.65 L 487.17,147.79 L 495.15,144.95 L 503.13,142.11 L 511.16,139.38 L 519.18,136.64 L 527.21,133.92 L 535.19,131.08 L 543.17,128.22 L 551.14,125.37 L 559.08,122.43 L 567.00,119.45 L 574.93,116.47 L 582.83,113.43 L 590.72,110.39 L 598.58,107.26 L 606.44,104.13 L 614.38,101.19 L 622.25,98.08 L 630.13,94.98 L 638.00,91.89 L 645.88,88.79 L 653.79,85.78 L 661.70,82.76 L 669.56,79.64 L 677.46,76.60 L 685.35,73.55 L 693.23,70.46 L 701.11,67.38 L 709.03,64.38 L 716.88,61.24 L 724.74,58.10 L 732.59,54.96 L 740.45,51.82 L 748.34,48.76 L 756.23,45.70 L 764.09,42.56 L 771.98,39.50 L 779.91,36.54 L 787.88,33.69 L 795.98,31.11 L 804.09,29.35 L 812.12,28.64 L 819.95,29.28 L 827.49,31.38 L 834.83,34.62 L 842.25,38.34 L 849.56,42.08 L 856.90,45.13 L 864.25,46.98 L 871.80,47.44 L 879.66,46.51 L 887.69,44.36 L 895.72,41.93 L 903.80,39.62 L 911.87,37.97 L 919.78,37.82 L 927.51,39.07 L 935.04,41.67 L 942.14,45.66 L 948.91,50.73 L 955.32,56.76 L 961.39,63.40 L 967.40,70.07 L 973.27,76.79 L 979.14,83.52 L 985.10,90.21 L 990.97,96.93 L 996.84,103.66 L 1002.71,110.39 L 1008.54,117.13 L 1014.41,123.85 L 1020.08,130.66 L 1025.55,137.56 L 1030.47,144.67 L 1034.52,152.11 L 1037.23,159.67 L 1038.10,166.99 L 1037.07,173.91 L 1034.01,179.81 L 1029.15,184.38 L 1023.03,186.92 L 1016.08,187.32 L 1008.84,185.66 L 1001.85,182.28 L 995.15,177.35 L 989.04,171.42 L 983.33,164.79 L 977.83,158.00 L 972.38,151.10 L 966.60,144.77 L 960.39,139.14 L 953.78,134.78 L 946.76,131.85 L 939.45,130.49 L 931.78,130.55 L 923.84,132.10 L 915.90,134.48 L 908.02,137.57 L 900.23,140.85 L 892.43,144.14 L 884.58,147.28 L 876.72,150.41 L 868.82,153.45 L 860.92,156.49 L 852.98,159.43 L 844.95,162.15 L 836.91,164.86 L 828.82,167.43 L 820.67,169.86 L 812.46,172.15 L 804.19,174.30 L 795.91,176.42 L 787.64,178.56 L 779.31,180.56 L 770.99,182.56 L 762.66,184.56 L 754.36,186.64 L 746.08,188.75 L 737.87,191.04 L 729.78,193.61 L 721.87,196.63 L 714.29,200.23 L 707.27,204.59 L 701.06,209.76 L 695.89,215.85 L 691.69,222.73 L 688.56,230.35 L 686.49,238.53 L 685.52,247.04 L 685.31,255.76 L 685.74,264.50 L 686.82,273.09 L 688.57,281.53 L 691.04,289.66 L 694.42,297.33 L 698.59,304.50 L 703.66,311.06 L 709.49,317.05 L 715.94,322.36 L 723.01,327.00 L 730.53,330.96 L 738.27,334.38 L 746.18,337.38 L 754.24,340.03 L 762.44,342.34 L 770.70,344.52 L 778.95,346.70 L 787.22,348.85 L 795.44,351.10 L 803.65,353.39 L 811.85,355.71 L 820.00,358.14 L 828.15,360.57 L 836.30,363.00 L 844.42,365.51 L 852.56,367.97 L 860.66,370.51 L 868.73,373.14 L 876.74,375.91 L 884.53,379.21 L 891.88,383.11 L 898.51,387.76 L 903.97,393.38 L 908.01,399.80 L 910.62,406.98 L 911.57,414.71 L 911.26,422.81 L 909.98,431.08 L 908.40,439.48 L 907.03,447.78 L 906.60,455.93 L 907.40,463.73 L 909.81,471.08 L 913.53,477.96 L 918.60,484.23 L 924.61,489.81 L 931.53,494.60 L 938.90,498.87 L 946.43,502.78 L 954.04,506.52 L 961.72,510.09 L 969.38,513.69 L 977.03,517.34 L 984.56,521.28 L 991.91,525.63 L 998.87,530.51 L 1004.84,536.19 L 1009.59,542.57 L 1012.80,549.46 L 1014.33,556.78 L 1014.23,564.42 L 1012.51,572.16 L 1009.44,579.93 L 1005.50,587.45 L 1000.92,594.72 L 996.07,601.86 L 990.86,608.78 L 985.23,615.27 L 979.25,621.38 L 972.61,626.45 L 965.51,630.51 L 957.86,633.58 L 949.75,635.52 Z" fill="none" stroke="red" stroke-width="4"/>
</svg>