<svg viewBox="0 0 1000 600" preserveAspectRatio="xMidYMid meet" xmlns="http://www.w3.org/2000/svg">
  <path d="M 820 225 L 850 230 C 870 233, 890 225, 895 235 C 900 245, 910 270, 880 285 C 850 300, 820 290, 800 280 C 780 270, 760 260, 750 270 C 740 280, 730 290, 720 285 C 710 280, 700 265, 680 260 C 660 255, 650 270, 640 275 C 630 280, 620 270, 600 260 L 450 210 C 430 203, 420 185, 400 190 C 380 195, 370 210, 350 205 L 200 155 C 150 138, 100 110, 110 90 C 120 70, 140 70, 180 80 L 750 160 C 770 163, 780 155, 785 165 C 790 175, 785 190, 800 195 Z" />
</svg>
