<svg xmlns="http://www.w3.org/2000/svg" viewBox="-50 0 1250 1000" fill="none">
  <path d="M 200 700 L 200 250 C 200 50, 650 50, 650 250 C 650 400, 450 400, 450 300 C 450 200, 300 200, 300 300 C 300 450, 400 500, 500 500 L 700 500 C 850 500, 850 600, 700 600 C 500 600, 500 700, 650 700 C 800 700, 800 800, 650 800 C 550 800, 550 850, 650 850 L 800 850 C 1050 850, 1150 850, 1150 900 C 1150 950, 1050 950, 900 950 L 200 950 C 0 950, 0 850, 150 850 C 200 850, 200 800, 200 700 Z" stroke="#FACC15" stroke-width="8" fill="rgba(250,204,21,0.08)"/>
</svg>
