<svg xmlns="http://www.w3.org/2000/svg" viewBox="0 0 934.2 543.2">
<path d="M 300.04,510.47 L 303.63,512.95 L 307.19,515.51 L 310.85,517.83 L 314.64,519.83 L 318.55,521.11 L 322.27,521.45 L 325.38,520.36 L 327.64,518.10 L 328.86,514.80 L 329.04,510.87 L 328.31,506.72 L 327.27,502.53 L 326.07,498.41 L 324.71,494.35 L 323.31,490.31 L 322.02,486.23 L 320.63,482.18 L 319.23,478.14 L 317.95,474.06 L 316.55,470.02 L 315.17,465.97 L 313.88,461.89 L 312.48,457.85 L 311.13,453.79 L 309.93,449.67 L 308.73,445.55 L 307.60,441.39 L 306.80,437.10 L 306.20,432.73 L 305.80,428.28 L 305.83,423.84 L 306.43,419.47 L 307.25,415.19 L 308.45,411.07 L 310.05,407.11 L 311.91,403.26 L 313.90,399.47 L 316.18,395.79 L 318.73,392.23 L 321.55,388.79 L 324.64,385.67 L 327.94,382.77 L 331.44,380.07 L 335.05,377.63 L 338.72,375.34 L 342.40,373.09 L 346.08,370.81 L 349.79,368.61 L 353.47,366.36 L 357.15,364.08 L 360.83,361.81 L 364.50,359.53 L 368.20,357.32 L 371.88,355.04 L 375.57,352.80 L 379.25,350.53 L 382.93,348.25 L 386.56,345.86 L 390.23,343.59 L 393.89,341.27 L 397.45,338.71 L 400.95,336.01 L 404.24,333.08 L 407.28,329.84 L 410.12,326.40 L 412.55,322.79 L 414.69,319.05 L 416.68,315.26 L 418.44,311.37 L 420.01,307.40 L 421.70,303.48 L 423.55,299.63 L 425.69,295.89 L 428.26,292.46 L 431.28,289.44 L 434.70,286.82 L 438.41,284.63 L 442.22,282.69 L 446.13,280.98 L 450.04,279.27 L 453.96,277.56 L 457.71,275.48 L 461.24,273.10 L 464.45,270.28 L 467.20,267.03 L 469.38,263.32 L 471.09,259.41 L 472.29,255.28 L 473.19,251.04 L 473.79,246.67 L 474.39,242.30 L 475.11,237.98 L 476.11,233.77 L 477.31,229.65 L 478.93,225.70 L 480.86,221.88 L 483.13,218.21 L 485.79,214.72 L 488.74,211.44 L 492.00,208.46 L 495.50,205.76 L 499.06,203.20 L 502.69,200.80 L 506.46,198.75 L 510.28,196.83 L 514.19,195.12 L 518.29,193.87 L 522.58,193.07 L 526.87,192.67 L 531.20,192.78 L 535.46,193.52 L 539.66,194.55 L 543.69,195.96 L 547.65,197.56 L 551.52,199.36 L 555.43,201.07 L 559.32,202.84 L 563.19,204.63 L 567.07,206.43 L 570.94,208.23 L 574.79,210.08 L 578.67,211.88 L 582.62,213.48 L 586.75,214.68 L 590.95,215.29 L 595.09,215.01 L 599.12,213.99 L 603.02,212.25 L 606.71,210.01 L 610.21,207.31 L 613.65,204.47 L 617.04,201.48 L 620.22,198.30 L 623.20,194.92 L 626.11,191.50 L 628.95,188.06 L 631.65,184.56 L 634.55,181.26 L 637.70,178.28 L 641.04,175.60 L 644.55,173.20 L 648.47,171.50 L 652.60,170.32 L 656.80,169.71 L 661.08,169.73 L 665.32,170.66 L 669.28,172.25 L 672.93,174.51 L 676.14,177.33 L 678.90,180.69 L 681.60,184.19 L 684.42,187.40 L 687.46,190.15 L 690.95,191.93 L 694.90,192.75 L 699.10,192.88 L 703.36,192.42 L 707.65,191.62 L 711.89,190.70 L 716.17,189.88 L 720.37,188.88 L 724.60,187.95 L 728.81,186.95 L 733.06,186.07 L 737.27,185.08 L 741.49,184.12 L 745.70,183.12 L 749.90,182.12 L 754.11,181.12 L 758.31,180.12 L 762.52,179.12 L 766.72,178.12 L 770.93,177.12 L 775.13,176.12 L 779.21,174.82 L 783.10,173.06 L 786.66,170.79 L 790.04,168.07 L 793.08,164.84 L 795.93,161.39 L 798.77,157.95 L 801.61,154.51 L 804.31,151.01 L 807.15,147.57 L 809.99,144.13 L 812.69,140.63 L 815.54,137.18 L 818.38,133.74 L 821.10,130.25 L 823.94,126.81 L 826.79,123.37 L 829.63,119.93 L 832.47,116.48 L 835.29,113.03 L 838.06,109.56 L 840.90,106.12 L 843.60,102.62 L 846.44,99.18 L 849.28,95.74 L 852.08,92.28 L 854.90,88.82 L 857.74,85.38 L 860.44,81.88 L 863.29,78.44 L 866.10,74.99 L 868.90,71.53 L 871.60,68.03 L 874.44,64.59 L 877.14,61.08 L 879.84,57.58 L 882.47,54.05 L 885.31,50.61 L 888.01,47.11 L 890.71,43.61 L 893.40,40.10 L 895.77,36.47 L 897.49,32.56 L 898.20,28.65 L 897.52,25.35 L 895.49,22.97 L 892.39,21.54 L 888.48,21.32 L 884.23,22.02 L 880.08,23.16 L 875.96,24.36 L 871.88,25.65 L 867.83,27.01 L 863.79,28.41 L 859.70,29.70 L 855.66,31.09 L 851.62,32.49 L 847.51,33.73 L 843.42,35.01 L 839.37,36.39 L 835.26,37.60 L 831.18,38.90 L 827.14,40.30 L 823.07,41.62 L 818.95,42.82 L 814.83,44.05 L 810.75,45.33 L 806.63,46.53 L 802.50,47.73 L 798.41,49.01 L 794.33,50.30 L 790.21,51.50 L 786.09,52.70 L 781.97,53.90 L 777.81,55.03 L 773.65,56.12 L 769.47,57.20 L 765.35,58.40 L 761.20,59.54 L 757.07,60.71 L 752.95,61.90 L 748.79,63.02 L 744.59,64.02 L 740.41,65.08 L 736.22,66.12 L 732.01,67.12 L 727.81,68.12 L 723.60,69.12 L 719.40,70.12 L 715.19,71.12 L 710.99,72.12 L 706.78,73.12 L 702.58,74.12 L 698.37,75.12 L 694.17,76.12 L 689.97,77.12 L 685.76,78.12 L 681.56,79.12 L 677.35,80.12 L 673.15,81.12 L 668.94,82.12 L 664.74,83.12 L 660.50,84.05 L 656.22,84.86 L 651.93,85.66 L 647.64,86.46 L 643.36,87.26 L 639.10,88.13 L 634.89,89.12 L 630.64,90.02 L 626.36,90.82 L 622.07,91.62 L 617.78,92.42 L 613.49,93.22 L 609.23,94.09 L 604.95,94.89 L 600.66,95.69 L 596.37,96.49 L 592.08,97.29 L 587.73,97.92 L 583.44,98.72 L 579.15,99.52 L 574.86,100.32 L 570.49,100.92 L 566.21,101.72 L 561.92,102.52 L 557.55,103.12 L 553.18,103.72 L 548.89,104.52 L 544.57,105.25 L 540.20,105.85 L 535.91,106.65 L 531.60,107.38 L 527.23,107.98 L 522.89,108.65 L 518.60,109.45 L 514.23,110.05 L 509.85,110.63 L 505.48,111.23 L 501.11,111.83 L 496.66,112.23 L 492.29,112.83 L 487.91,113.41 L 483.62,114.21 L 479.25,114.81 L 474.96,115.61 L 470.59,116.21 L 466.18,116.72 L 461.73,117.12 L 457.28,117.52 L 452.82,117.92 L 448.37,118.32 L 444.00,118.92 L 439.55,119.32 L 435.13,119.80 L 430.67,120.20 L 426.22,120.60 L 421.77,121.00 L 417.31,121.40 L 412.91,121.92 L 408.52,122.47 L 404.15,123.07 L 399.74,123.59 L 395.37,124.19 L 390.92,124.59 L 386.49,125.04 L 382.04,125.44 L 377.61,125.92 L 373.16,126.32 L 368.79,126.92 L 364.35,127.34 L 359.98,127.94 L 355.61,128.54 L 351.31,129.31 L 347.42,130.51 L 344.53,132.57 L 342.86,135.23 L 342.54,138.40 L 343.59,142.11 L 345.58,145.90 L 348.00,149.52 L 350.56,153.08 L 353.26,156.58 L 355.96,160.08 L 358.66,163.58 L 361.36,167.08 L 364.06,170.58 L 366.62,174.14 L 369.18,177.70 L 371.74,181.26 L 374.30,184.82 L 376.85,188.37 L 379.41,191.93 L 381.87,195.53 L 384.29,199.15 L 386.57,202.83 L 388.69,206.57 L 390.51,210.43 L 391.71,214.39 L 392.00,218.36 L 391.15,221.92 L 389.10,224.91 L 385.92,227.05 L 382.02,228.36 L 377.64,228.92 L 373.14,229.02 L 368.61,228.82 L 364.10,228.54 L 359.73,227.94 L 355.74,226.72 L 352.11,224.89 L 349.10,222.34 L 346.58,219.12 L 344.65,215.38 L 342.87,211.50 L 341.20,207.57 L 339.39,203.70 L 337.46,199.88 L 335.09,196.24 L 332.60,192.66 L 329.85,189.17 L 326.87,185.79 L 323.72,182.51 L 320.48,179.47 L 316.99,176.76 L 313.30,174.50 L 309.35,172.90 L 305.14,171.90 L 300.77,171.32 L 296.38,171.49 L 292.41,172.60 L 289.53,174.57 L 287.94,177.31 L 287.65,180.82 L 288.50,184.73 L 290.29,188.61 L 292.28,192.40 L 294.34,196.16 L 296.48,199.90 L 298.61,203.63 L 300.75,207.37 L 302.98,211.06 L 305.18,214.77 L 307.34,218.49 L 309.62,222.17 L 311.75,225.91 L 313.92,229.62 L 316.12,233.33 L 318.38,237.02 L 320.51,240.75 L 322.65,244.48 L 324.68,248.26 L 326.48,252.14 L 328.02,256.12 L 329.20,260.25 L 330.06,264.39 L 330.46,268.68 L 330.46,272.97 L 330.06,277.26 L 329.26,281.38 L 328.12,285.52 L 326.72,289.56 L 325.09,293.51 L 323.29,297.38 L 321.24,301.15 L 318.82,304.77 L 316.01,308.11 L 312.86,311.08 L 309.32,313.69 L 305.67,316.04 L 301.92,318.13 L 298.13,320.12 L 294.33,322.10 L 290.46,323.90 L 286.52,325.54 L 282.48,326.94 L 278.36,328.14 L 274.08,328.96 L 269.79,329.36 L 265.41,329.51 L 261.04,329.31 L 256.67,328.71 L 252.38,327.91 L 248.15,326.97 L 244.02,325.79 L 239.95,324.46 L 235.95,322.96 L 232.08,321.15 L 228.35,319.01 L 224.77,316.49 L 221.33,313.65 L 218.23,310.43 L 215.25,307.05 L 212.51,303.56 L 209.96,300.01 L 207.54,296.39 L 205.04,292.80 L 202.62,289.19 L 200.09,285.61 L 197.57,282.04 L 195.01,278.48 L 192.45,274.92 L 189.89,271.36 L 187.34,267.80 L 184.74,264.26 L 182.18,260.70 L 179.62,257.14 L 176.92,253.64 L 174.22,250.14 L 171.52,246.64 L 168.68,243.20 L 165.70,239.82 L 162.69,236.49 L 159.35,233.67 L 155.61,231.57 L 151.64,230.24 L 147.51,229.84 L 143.31,230.44 L 139.14,231.53 L 135.13,232.98 L 131.22,234.69 L 127.34,236.49 L 123.46,238.26 L 119.61,240.12 L 115.75,241.97 L 111.90,243.82 L 108.03,245.62 L 104.17,247.45 L 100.32,249.30 L 96.40,251.01 L 92.49,252.72 L 88.61,254.48 L 84.65,256.08 L 80.70,257.69 L 76.81,259.47 L 72.90,261.18 L 68.99,262.89 L 65.12,264.69 L 61.25,266.49 L 57.37,268.28 L 53.53,270.17 L 49.80,272.31 L 46.20,274.77 L 42.85,277.54 L 39.91,280.64 L 38.10,284.10 L 37.31,287.72 L 37.57,291.46 L 38.84,295.19 L 41.12,298.87 L 43.74,302.28 L 46.71,305.45 L 49.95,308.49 L 53.39,311.34 L 56.89,314.04 L 60.33,316.88 L 63.78,319.70 L 67.42,322.07 L 71.27,323.92 L 75.18,325.77 L 79.21,327.48 L 82.78,329.47 L 85.60,332.16 L 88.15,335.50 L 90.64,338.85 L 93.06,342.23 L 95.88,345.44 L 99.32,348.28 L 102.82,350.98 L 106.26,353.83 L 109.72,356.64 L 113.22,359.34 L 116.72,362.04 L 120.16,364.88 L 123.66,367.58 L 127.12,370.37 L 130.57,373.21 L 134.01,376.05 L 137.50,378.76 L 140.95,381.61 L 144.42,384.36 L 147.92,387.06 L 151.37,389.90 L 154.81,392.73 L 158.31,395.43 L 161.75,398.27 L 165.20,401.12 L 168.70,403.82 L 172.17,406.59 L 175.61,409.43 L 179.11,412.13 L 182.61,414.83 L 186.08,417.61 L 189.55,420.38 L 193.05,423.08 L 196.49,425.92 L 199.93,428.77 L 203.41,431.53 L 206.91,434.23 L 210.35,437.07 L 213.85,439.77 L 217.35,442.47 L 220.79,445.31 L 224.24,448.15 L 227.74,450.85 L 231.18,453.69 L 234.62,456.54 L 238.06,459.39 L 241.44,462.37 L 244.82,465.35 L 248.23,468.27 L 251.62,471.25 L 255.06,474.09 L 258.50,476.93 L 261.95,479.78 L 265.42,482.54 L 268.86,485.38 L 272.30,488.22 L 275.80,490.92 L 279.25,493.77 L 282.69,496.61 L 286.15,499.39 L 289.60,502.23 L 293.04,505.07 L 296.54,507.77 Z" fill="none" stroke="black" stroke-width="8"/>
</svg>