<svg xmlns="http://www.w3.org/2000/svg" viewBox="0 0 587.5 670.7">
<path d="M 255.64,580.04 L 251.69,576.75 L 248.10,572.58 L 244.72,567.78 L 240.79,563.45 L 236.38,559.44 L 231.77,555.63 L 227.10,551.96 L 222.29,548.37 L 217.73,544.41 L 213.12,540.60 L 208.51,536.79 L 204.20,532.84 L 199.90,528.84 L 195.26,525.38 L 190.54,522.14 L 185.84,518.95 L 181.13,515.67 L 176.45,512.31 L 171.92,508.59 L 167.59,504.39 L 163.23,500.12 L 158.55,496.20 L 153.68,492.73 L 148.74,489.45 L 143.84,486.34 L 139.42,482.92 L 135.10,479.25 L 131.12,475.06 L 127.14,470.86 L 123.07,466.59 L 118.46,462.78 L 113.65,459.45 L 108.49,456.69 L 103.73,453.62 L 99.39,450.28 L 95.17,446.66 L 91.10,442.71 L 87.17,438.38 L 82.97,434.05 L 78.33,430.01 L 73.64,426.12 L 68.95,422.23 L 64.26,418.34 L 59.50,414.58 L 54.81,410.69 L 50.12,406.80 L 45.43,402.91 L 40.69,399.11 L 35.89,395.50 L 31.13,391.98 L 27.32,387.96 L 24.47,383.42 L 22.98,378.44 L 22.99,372.95 L 24.65,367.45 L 27.05,362.26 L 30.39,358.07 L 34.35,355.60 L 38.91,354.65 L 43.85,354.71 L 49.22,355.92 L 54.91,357.41 L 60.77,358.47 L 66.66,359.47 L 72.53,360.53 L 78.34,361.73 L 83.99,363.31 L 89.64,364.90 L 95.44,366.10 L 101.36,367.04 L 106.78,368.63 L 111.56,370.89 L 115.92,373.90 L 119.96,377.66 L 123.70,382.17 L 127.82,386.30 L 132.62,389.64 L 137.72,392.54 L 142.36,395.75 L 146.64,399.23 L 150.84,402.91 L 154.80,407.14 L 158.67,411.61 L 163.00,415.77 L 167.69,419.66 L 172.35,423.63 L 177.05,427.53 L 181.74,431.42 L 186.43,435.31 L 191.11,439.23 L 195.74,443.15 L 199.82,447.42 L 204.03,451.34 L 208.55,454.52 L 213.39,456.92 L 218.57,458.23 L 224.45,458.04 L 230.17,456.75 L 235.43,454.53 L 240.04,451.31 L 243.95,447.21 L 246.87,442.31 L 248.61,436.94 L 249.09,431.43 L 248.33,425.92 L 246.63,420.41 L 244.50,414.98 L 242.36,409.57 L 239.97,404.37 L 237.43,399.23 L 234.75,394.15 L 232.08,389.07 L 229.35,384.02 L 227.27,378.57 L 226.14,372.90 L 225.83,367.06 L 226.03,361.17 L 226.96,355.30 L 228.42,349.60 L 230.22,344.05 L 232.42,338.65 L 234.97,333.40 L 237.59,328.18 L 240.33,323.01 L 243.13,317.87 L 245.53,312.55 L 247.58,307.10 L 249.63,301.64 L 252.05,296.46 L 254.63,291.34 L 257.61,286.38 L 260.86,281.54 L 264.24,276.76 L 267.22,271.69 L 269.98,266.52 L 272.60,261.30 L 275.35,256.14 L 278.10,250.97 L 280.78,245.78 L 283.45,240.58 L 286.05,235.35 L 288.25,229.95 L 290.18,224.45 L 292.52,219.11 L 294.81,213.76 L 297.01,208.36 L 299.21,202.97 L 301.77,197.90 L 304.54,193.33 L 307.78,189.02 L 311.47,184.95 L 315.72,181.10 L 320.01,177.11 L 323.96,172.56 L 327.44,167.74 L 330.75,162.80 L 333.25,157.70 L 335.25,152.39 L 336.51,146.77 L 337.15,141.03 L 336.95,135.14 L 336.60,129.19 L 335.60,123.29 L 334.40,117.49 L 333.06,111.74 L 331.66,106.01 L 330.24,100.30 L 328.83,94.57 L 327.23,88.93 L 325.46,83.36 L 323.86,77.72 L 322.48,71.98 L 321.48,66.09 L 321.07,60.12 L 321.75,54.19 L 323.51,48.73 L 326.33,44.08 L 329.93,39.97 L 334.04,36.07 L 338.58,32.67 L 343.36,29.82 L 348.23,27.62 L 353.43,26.54 L 358.95,27.05 L 364.41,28.67 L 369.71,31.09 L 374.79,34.07 L 379.77,37.27 L 384.75,40.45 L 389.82,43.44 L 394.92,46.34 L 399.54,49.56 L 403.49,53.28 L 407.17,57.36 L 410.50,61.98 L 413.69,66.97 L 417.16,71.84 L 421.19,76.47 L 425.37,81.05 L 429.80,85.28 L 434.46,88.97 L 439.00,92.69 L 442.96,96.65 L 446.51,100.78 L 449.65,105.32 L 452.27,110.52 L 453.67,115.75 L 454.00,120.79 L 453.08,125.72 L 451.08,130.70 L 448.89,135.77 L 447.52,140.98 L 447.28,146.36 L 447.99,151.97 L 449.59,157.61 L 450.99,163.33 L 452.36,169.07 L 453.76,174.80 L 455.16,180.52 L 456.36,186.33 L 457.56,192.14 L 458.74,197.95 L 460.53,203.29 L 463.14,208.04 L 466.54,212.24 L 470.21,216.32 L 474.72,219.82 L 479.34,223.02 L 484.14,225.82 L 489.11,228.20 L 494.79,229.73 L 500.63,230.84 L 506.37,232.20 L 511.78,234.16 L 516.44,236.99 L 521.03,239.99 L 525.50,243.12 L 529.34,246.78 L 532.54,250.82 L 535.31,255.04 L 536.76,260.08 L 536.96,265.97 L 536.56,271.94 L 535.76,277.92 L 534.76,283.81 L 533.76,289.70 L 532.76,295.59 L 531.76,301.48 L 530.76,307.37 L 529.76,313.26 L 528.76,319.15 L 527.96,325.13 L 527.16,331.10 L 526.64,337.12 L 527.34,342.57 L 528.94,347.70 L 530.74,352.74 L 533.01,357.75 L 535.80,362.55 L 538.20,367.74 L 540.50,373.10 L 543.30,378.24 L 546.43,383.25 L 549.55,388.26 L 552.73,393.25 L 555.83,398.27 L 558.43,403.50 L 560.63,408.89 L 562.23,414.53 L 563.36,420.37 L 564.16,426.35 L 564.23,432.18 L 563.35,437.79 L 561.71,443.09 L 558.99,448.10 L 555.32,452.88 L 551.28,457.52 L 547.11,462.09 L 542.94,466.67 L 539.46,471.54 L 536.34,476.55 L 533.58,481.71 L 531.23,487.04 L 528.55,491.83 L 524.96,495.84 L 520.71,499.21 L 515.97,502.15 L 510.81,504.91 L 506.00,508.22 L 501.38,512.02 L 496.95,516.25 L 492.77,520.83 L 488.60,525.40 L 484.30,529.93 L 480.13,534.51 L 475.95,539.08 L 471.63,543.60 L 467.46,548.17 L 463.40,552.80 L 459.58,557.52 L 456.25,562.44 L 453.06,567.43 L 449.74,572.36 L 446.22,577.10 L 441.98,580.81 L 437.04,583.02 L 431.75,583.87 L 426.09,583.84 L 420.12,583.04 L 414.14,582.24 L 408.03,581.79 L 401.80,581.59 L 395.99,581.69 L 391.34,583.02 L 387.95,585.60 L 385.81,589.50 L 384.86,594.81 L 384.76,601.07 L 384.76,607.21 L 384.53,613.26 L 383.73,619.06 L 381.90,623.96 L 378.89,627.79 L 374.95,631.06 L 370.64,634.17 L 365.99,637.12 L 361.20,639.92 L 356.32,642.52 L 351.27,644.19 L 345.64,644.68 L 339.75,644.08 L 333.89,643.00 L 328.58,641.07 L 323.97,638.43 L 320.33,634.80 L 316.86,630.79 L 313.60,626.27 L 310.15,621.75 L 306.14,617.57 L 301.39,613.82 L 296.70,609.93 L 291.99,606.07 L 287.30,602.18 L 282.81,598.09 L 278.66,593.74 L 274.23,590.04 L 269.50,587.09 L 264.65,584.84 L 260.07,582.47 Z" fill="none" stroke="red" stroke-width="4"/>
</svg>