<svg xmlns="http://www.w3.org/2000/svg" viewBox="0 0 1250 550" fill="none">
  <path d="M 700 150 L 1000 150 C 1200 150, 1200 300, 1000 300 C 950 300, 930 360, 900 360 C 870 360, 850 240, 800 240 C 750 240, 730 360, 700 360 C 670 360, 650 240, 600 240 C 550 150, 500 150, 500 300 C 500 350, 480 380, 450 380 C 420 380, 400 360, 400 330 L 350 200 C 340 170, 350 140, 360 120 C 370 80, 310 80, 300 120 C 250 300, 150 300, 150 400 C 150 460, 100 500, 60 460 C 20 420, 60 360, 120 360 L 550 220 C 600 200, 630 190, 650 210 L 660 220 C 680 230, 680 250, 660 250 C 640 250, 640 270, 660 270 C 680 270, 680 150, 700 150 Z" stroke="#FACC15" stroke-width="5" fill="rgba(250,204,21,0.08)"/>
</svg>
