<svg xmlns="http://www.w3.org/2000/svg" viewBox="0 0 422 308">
  <path d="M 160.19 35.14 L 163.28 35.66 L 165.55 36 L 167.64 36.36 L 169.8 36.8 L 172.16 37.45 L 174.53 38.33 L 176.39 39.11 L 177.63 39.53 L 183.64 39.69 L 184.93 39.78 L 186.6 40 L 188.35 40.22 L 189.58 40.22 L 195.66 40.69 L 197.03 40.78 L 198.97 41.02 L 201.22 41.33 L 203.21 41.56 L 204.85 41.67 L 206.57 41.78 L 208.63 42.03 L 211.19 42.44 L 214.43 42.92 L 218.11 43.42 L 221.8 43.92 L 225.39 44.44 L 229.08 45 L 232.72 45.55 L 235.66 45.89 L 237.47 46 L 238.69 46.11 L 240.3 46.36 L 242.64 46.67 L 245.24 47 L 247.66 47.34 L 250.07 47.67 L 252.74 48.02 L 255.72 48.44 L 258.88 48.91 L 261.86 49.31 L 264.36 49.58 L 266.47 49.77 L 268.44 50.02 L 270.38 50.34 L 272.52 50.67 L 275.11 51 L 277.91 51.34 L 280.49 51.67 L 282.89 52 L 285.3 52.34 L 287.71 52.67 L 290.35 53.02 L 293.63 53.45 L 297.77 54.02 L 302.58 54.67 L 307.32 55.33 L 311.27 55.91 L 314.46 56.42 L 317.27 56.92 L 320.05 57.42 L 323.02 57.91 L 326.03 58.33 L 328.68 58.67 L 330.88 59.02 L 333.27 59.45 L 336.63 60.03 L 341.07 60.77 L 345.85 61.58 L 350.24 62.33 L 354.35 63 L 358.58 63.67 L 362.74 64.34 L 366.61 65.02 L 370.64 65.77 L 374.97 66.58 L 379 67.33 L 382.53 68.17 L 386.18 69.88 L 390.16 73.19 L 393.64 77.84 L 395.91 83.3 L 397.55 89.89 L 399.46 97.47 L 401.38 104.19 L 402.5 108.58 L 402.68 111.17 L 402.33 113.19 L 401.83 115.2 L 401.24 117.39 L 400.49 119.88 L 399.6 122.56 L 398.71 125.08 L 397.96 127.08 L 397.36 128.55 L 396.83 129.78 L 396.24 131.14 L 395.49 132.8 L 394.58 134.69 L 393.6 136.66 L 392.61 138.55 L 391.71 140.2 L 390.96 141.55 L 390.36 142.64 L 389.85 143.56 L 387.83 146.7 L 387.24 147.78 L 386.49 149.03 L 385.58 150.44 L 384.61 151.91 L 383.71 153.31 L 382.94 154.58 L 382.25 155.77 L 381.49 157.03 L 380.58 158.44 L 379.61 159.91 L 378.71 161.31 L 377.94 162.58 L 377.25 163.77 L 376.49 165.03 L 375.58 166.44 L 374.61 167.91 L 373.71 169.31 L 372.94 170.56 L 372.27 171.66 L 371.6 172.67 L 370.94 173.67 L 370.36 174.67 L 369.83 175.67 L 369.25 176.67 L 368.6 177.67 L 367.93 178.69 L 367.25 179.78 L 366.5 181.02 L 365.69 182.33 L 364.94 183.56 L 364.27 184.66 L 363.6 185.67 L 362.93 186.69 L 362.25 187.78 L 361.5 189.02 L 360.69 190.33 L 359.94 191.58 L 359.25 192.77 L 358.49 194.03 L 357.58 195.44 L 356.61 196.91 L 355.71 198.31 L 354.94 199.58 L 354.25 200.77 L 353.5 202.02 L 352.69 203.33 L 351.94 204.56 L 351.27 205.66 L 350.6 206.67 L 349.93 207.69 L 349.25 208.78 L 348.49 210.03 L 347.58 211.44 L 346.61 212.91 L 345.71 214.31 L 344.94 215.56 L 344.27 216.66 L 343.6 217.67 L 342.93 218.69 L 342.25 219.78 L 341.5 221.02 L 340.69 222.33 L 339.94 223.56 L 339.25 224.67 L 338.49 225.78 L 337.6 227.02 L 336.71 228.33 L 335.94 229.56 L 335.25 230.67 L 334.49 231.78 L 333.58 233.03 L 332.6 234.44 L 331.6 235.91 L 330.6 237.33 L 329.6 238.67 L 328.61 240 L 327.71 241.33 L 326.94 242.56 L 326.25 243.66 L 325.5 244.67 L 324.69 245.66 L 323.96 246.56 L 319.6 252.67 L 318.94 253.56 L 315.83 252.2 L 312.16 245.13 L 307.63 234.77 L 304.41 225.78 L 302.89 219.78 L 301.53 214.52 L 299.47 209.11 L 297.25 205.03 L 295.41 202.86 L 293.85 201.67 L 292.22 200.52 L 289.97 198.56 L 286.61 195.09 L 282.71 190.53 L 279.6 186.31 L 277.85 183.27 L 276.8 181.02 L 275.24 178.59 L 272.18 175.3 L 267.93 171.64 L 263.83 168.92 L 260.52 167.56 L 257.57 166.92 L 254.6 166.42 L 251.53 165.91 L 248.22 165.33 L 244.58 164.67 L 240.83 164 L 236.97 163.09 L 232.38 160.91 L 226.6 156.25 L 220.25 149.5 L 214.53 142.58 L 210.19 137.22 L 207.35 134.02 L 205.58 132.47 L 204.13 131.56 L 202.49 130.66 L 200.69 129.67 L 198.94 128.67 L 197.25 127.67 L 195.6 126.73 L 196.46 128.28 L 202.11 133.53 L 209.57 140.66 L 215.25 146.58 L 219.75 151.7 L 229.66 162.06 L 250.13 182.59 L 275.28 208.05 L 293.11 227.25 L 299.78 236.25 L 300.6 239.56 L 300.27 241.64 L 299.94 243.64 L 299.69 245.41 L 299.49 247.16 L 299.14 249.7 L 298.58 253.42 L 297.94 257.61 L 297.38 261.33 L 296.94 264.27 L 296.6 266.67 L 296.25 269.06 L 295.83 271.84 L 295.36 274.98 L 294.94 278.09 L 294.6 280.75 L 294.64 282.56 L 296.58 282.53 L 302.08 279.48 L 309.83 274.47 L 316.11 270.58 L 319.41 269.48 L 321.3 270.77 L 323.05 273.77 L 324.14 277.47 L 323.93 280.34 L 322.83 281.86 L 321.64 282.67 L 320.6 283.34 L 319.6 284 L 318.6 284.67 L 317.6 285.34 L 316.58 286.02 L 315.49 286.78 L 314.25 287.67 L 312.96 288.56 L 311.82 289.31 L 310.96 289.91 L 308.58 291.67 L 307.6 292.34 L 306.6 293 L 305.61 293.67 L 302.02 289.88 L 285.16 263.72 L 244.35 197.36 L 190.33 108.64 L 150.02 42.28 L 134.44 16.55 L 133.18 13.98 L 135.11 16.36 L 136.47 18.33 L 136.28 19.77 L 134.41 21.3 L 131.78 23.05 L 129.91 24.58 L 129.72 26.02 L 131.1 27.98 L 133.1 30.36 L 134.47 32.33 L 134.28 33.77 L 132.41 35.27 L 129.69 36.7 L 127.1 36.89 L 124.47 35.06 L 121.05 32.08 L 117.02 29.67 L 113.41 29 L 110.66 30.09 L 108.32 31.83 L 106.11 32.47 L 104.08 31.14 L 101.5 28.63 L 97.32 26.31 L 91.6 24.77 L 85.47 23.69 L 79.96 22.8 L 75.53 22.13 L 72.24 21.69 L 69.66 21.33 L 67.11 20.91 L 64.14 20.42 L 60.96 19.92 L 58.05 19.44 L 55.69 19.03 L 53.92 18.78 L 52.64 18.69 L 51.6 18.67 L 46.57 18.69 L 45.38 18.78 L 43.89 19.03 L 42.17 19.44 L 40.46 19.92 L 38.86 20.42 L 37.36 20.92 L 35.96 21.52 L 34.6 22.61 L 32.85 24.7 L 30.21 27.55 L 27.11 30.09 L 24.71 31.73 L 23.36 32.88 L 22.49 34.16 L 21.58 35.78 L 20.61 37.56 L 19.72 39.36 L 19.18 41.63 L 19.5 44.97 L 21.14 48.77 L 23.66 51.45 L 25.96 52.5 L 27.69 52.75 L 29.89 53.2 L 33.61 54.27 L 38.11 55.48 L 41.64 56.09 L 44.05 56.17 L 46.71 56.31 L 49.94 56.34 L 52.63 55.73 L 54.13 54.63 L 55.14 53 L 57.13 49.56 L 61.16 43.31 L 66.75 36.13 L 72.13 31.75 L 75.21 32.67 L 74.44 38.92 L 70.72 47.8 L 67.24 55.13 L 65.8 59.08 L 65.69 61.28 L 65.94 63.73 L 66.25 66.61 L 66.49 69.02 L 66.58 70.58 L 66.61 71.77 L 66.71 73.33 L 66.94 75.73 L 67.25 78.66 L 67.5 81.33 L 67.69 83.5 L 67.92 85.28 L 68.16 86.61 L 68.41 87.7 L 69.44 89.38 L 72.42 92.16 L 77.44 95.41 L 83.36 97.98 L 89.36 99.56 L 95.14 100.56 L 100.14 101.31 L 103.94 101.91 L 106.91 102.42 L 109.71 102.92 L 112.61 103.42 L 115.61 103.92 L 118.78 104.44 L 122.42 105.02 L 126.6 105.67 L 130.85 106.34 L 134.89 107 L 138.94 107.67 L 142.99 108.33 L 146.75 108.91 L 150.13 109.42 L 153.13 109.92 L 155.86 110.44 L 158.68 111.03 L 161.89 111.78 L 165.38 112.67 L 168.55 113.56 L 171 114.33 L 172.91 115.02 L 174.71 115.78 L 176.6 116.69 L 178.47 117.66 L 180.13 118.56 L 181.49 119.33 L 182.71 120.02 L 184.07 120.78 L 185.41 120.41 L 185.38 113.69 L 182.35 95.36 L 176.64 70.36 L 169.46 51.3 L 160.63 43.05 L 151.22 39.92 L 144.74 36.11 L 142.68 30.39 L 143.1 23.86 L 143.99 18.13 L 144.69 14.77 L 144.89 18.02 L 145.03 23.11 L 146.74 28.08 L 150.64 31.75 L 155.72 34 Z" />
</svg>