<svg viewBox="0 0 3000 1600" xmlns="http://www.w3.org/2000/svg">
  <path d="M 2700 200 L 500 200 C 200 200, 200 400, 400 400 L 1800 800 C 2000 850, 2000 1000, 1800 1000 C 1650 1000, 1600 1200, 1450 1200 C 1300 1200, 1250 950, 1100 950 C 950 950, 900 1150, 750 1150 C 600 1150, 550 950, 450 950 C 300 950, 200 1100, 200 1250 C 200 1400, 350 1400, 500 1400 C 1000 1400, 1600 1400, 2200 1250 C 2450 1150, 2550 1000, 2450 900 C 2350 800, 2500 800, 2550 700 C 2600 600, 2450 600, 2450 500 C 2450 400, 2650 450, 2700 300 C 2750 150, 2850 200, 2700 200 Z" />
</svg>
