<svg viewBox="0 0 1210 522" preserveAspectRatio="xMidYMid meet" xmlns="http://www.w3.org/2000/svg">
  <path d="M 323.9,0.0 L 338.5,0.0 L 348.6,4.3 L 355.9,11.5 L 363.1,18.7 L 370.4,25.9 L 377.7,33.1 L 386.4,38.8 L 395.1,44.6 L 405.3,48.9 L 414.0,54.6 L 422.7,60.4 L 431.4,66.1 L 440.1,71.9 L 448.8,77.7 L 457.6,83.4 L 467.7,87.7 L 475.0,94.9 L 483.7,100.7 L 493.9,105.0 L 502.6,110.7 L 511.3,116.5 L 520.0,122.2 L 528.7,128.0 L 538.9,132.3 L 547.6,138.0 L 556.3,143.8 L 565.1,149.6 L 573.8,155.3 L 582.5,161.1 L 591.2,166.8 L 599.9,172.6 L 608.6,178.3 L 618.8,182.6 L 629.0,186.9 L 637.7,192.7 L 647.9,197.0 L 658.0,201.3 L 668.2,205.6 L 678.4,210.0 L 687.1,215.7 L 695.8,221.5 L 706.0,225.8 L 714.7,231.5 L 723.4,237.3 L 732.1,243.0 L 740.8,248.8 L 748.1,256.0 L 756.8,261.7 L 765.5,267.5 L 775.7,271.8 L 784.4,277.5 L 794.6,281.9 L 806.2,284.7 L 817.8,284.7 L 832.3,284.7 L 841.0,279.0 L 849.8,273.2 L 858.5,267.5 L 865.7,260.3 L 870.1,250.2 L 874.5,240.1 L 875.9,227.2 L 878.8,215.7 L 880.3,202.8 L 880.3,188.4 L 883.2,176.9 L 886.1,165.4 L 890.4,155.3 L 897.7,148.1 L 905.0,140.9 L 913.7,135.2 L 926.7,133.7 L 939.8,132.3 L 951.4,129.4 L 963.1,126.5 L 976.1,125.1 L 989.2,123.7 L 1000.8,120.8 L 1012.4,117.9 L 1025.5,116.5 L 1037.1,113.6 L 1050.2,112.2 L 1061.8,109.3 L 1073.5,106.4 L 1088.0,106.4 L 1099.6,103.5 L 1111.2,100.7 L 1125.8,100.7 L 1138.8,102.1 L 1146.1,109.3 L 1151.9,117.9 L 1149.0,129.4 L 1144.6,139.5 L 1138.8,148.1 L 1131.6,155.3 L 1124.3,162.5 L 1118.5,171.1 L 1111.2,178.3 L 1106.9,188.4 L 1101.1,197.0 L 1096.7,207.1 L 1090.9,215.7 L 1085.1,224.3 L 1085.1,238.7 L 1093.8,244.5 L 1102.5,238.7 L 1109.8,231.5 L 1115.6,222.9 L 1121.4,214.3 L 1127.2,205.6 L 1134.5,198.4 L 1141.7,191.3 L 1151.9,186.9 L 1162.1,191.3 L 1172.2,195.6 L 1180.9,201.3 L 1189.7,207.1 L 1198.4,212.8 L 1205.6,220.0 L 1210.0,230.1 L 1207.1,241.6 L 1201.3,250.2 L 1192.6,256.0 L 1183.9,261.7 L 1175.1,267.5 L 1166.4,273.2 L 1157.7,279.0 L 1149.0,284.7 L 1140.3,290.5 L 1131.6,296.2 L 1122.8,302.0 L 1114.1,307.7 L 1105.4,313.5 L 1096.7,319.2 L 1088.0,325.0 L 1077.8,329.3 L 1069.1,335.1 L 1061.8,342.2 L 1053.1,348.0 L 1043.0,352.3 L 1034.2,358.1 L 1025.5,363.8 L 1013.9,366.7 L 1005.2,372.4 L 993.6,375.3 L 981.9,378.2 L 970.3,381.1 L 958.7,384.0 L 944.2,384.0 L 931.1,385.4 L 919.5,385.4 L 905.0,385.4 L 891.9,384.0 L 877.4,384.0 L 865.7,381.1 L 854.1,378.2 L 841.0,376.8 L 830.9,372.4 L 819.3,369.6 L 809.1,365.3 L 798.9,360.9 L 787.3,358.1 L 777.1,353.8 L 767.0,349.4 L 758.2,343.7 L 746.6,340.8 L 737.9,335.1 L 727.7,330.7 L 719.0,325.0 L 710.3,319.2 L 700.1,314.9 L 691.4,309.2 L 682.7,303.4 L 674.0,297.7 L 665.3,291.9 L 656.6,286.2 L 647.9,280.4 L 637.7,276.1 L 629.0,270.3 L 620.3,264.6 L 610.1,260.3 L 599.9,256.0 L 591.2,258.8 L 583.9,266.0 L 576.7,273.2 L 566.5,277.5 L 557.8,277.5 L 549.1,271.8 L 538.9,267.5 L 530.2,261.7 L 522.9,254.5 L 520.0,243.0 L 517.1,231.5 L 514.2,220.0 L 507.0,212.8 L 498.2,207.1 L 489.5,201.3 L 480.8,195.6 L 473.5,188.4 L 464.8,182.6 L 456.1,176.9 L 448.8,169.7 L 440.1,163.9 L 431.4,158.2 L 424.2,151.0 L 415.4,145.2 L 406.7,139.5 L 399.5,132.3 L 390.7,126.5 L 383.5,119.4 L 374.8,113.6 L 366.1,107.9 L 357.3,102.1 L 345.7,99.2 L 332.6,100.7 L 323.9,103.5 L 316.7,110.7 L 307.9,116.5 L 300.7,123.7 L 293.4,130.9 L 284.7,136.6 L 277.4,143.8 L 268.7,149.6 L 261.5,156.7 L 252.7,162.5 L 246.9,171.1 L 242.6,181.2 L 245.5,192.7 L 246.9,205.6 L 245.5,218.6 L 239.7,227.2 L 233.9,235.8 L 228.1,244.5 L 220.8,251.7 L 216.4,261.7 L 207.7,267.5 L 201.9,276.1 L 194.6,283.3 L 188.8,291.9 L 180.1,297.7 L 170.0,302.0 L 159.8,297.7 L 148.2,294.8 L 136.5,297.7 L 132.2,307.7 L 126.4,316.4 L 123.5,327.9 L 120.6,339.4 L 120.6,353.8 L 117.7,365.3 L 117.7,379.6 L 117.7,394.0 L 117.7,408.4 L 117.7,422.8 L 120.6,434.3 L 123.5,445.8 L 127.8,455.9 L 132.2,465.9 L 138.0,474.5 L 140.9,486.0 L 142.4,496.1 L 139.4,507.6 L 132.2,514.8 L 122.0,519.1 L 111.8,520.6 L 101.7,516.2 L 91.5,511.9 L 84.2,504.7 L 75.5,499.0 L 66.8,493.2 L 59.6,486.0 L 50.8,480.3 L 42.1,474.5 L 33.4,468.8 L 26.1,461.6 L 17.4,455.9 L 10.2,448.7 L 2.9,441.5 L 0.0,430.0 L 4.4,419.9 L 11.6,412.7 L 18.9,405.5 L 26.1,398.3 L 29.1,386.8 L 32.0,375.3 L 33.4,362.4 L 34.9,349.4 L 37.8,337.9 L 40.7,326.4 L 43.6,314.9 L 46.5,303.4 L 52.3,294.8 L 55.2,283.3 L 61.0,274.7 L 66.8,266.0 L 72.6,257.4 L 78.4,248.8 L 82.8,238.7 L 88.6,230.1 L 95.9,222.9 L 101.7,214.3 L 107.5,205.6 L 113.3,197.0 L 119.1,188.4 L 126.4,181.2 L 133.6,174.0 L 139.4,165.4 L 145.3,156.7 L 152.5,149.6 L 159.8,142.4 L 167.0,135.2 L 175.8,129.4 L 184.5,126.5 L 193.2,120.8 L 201.9,115.0 L 204.8,120.8 L 197.6,128.0 L 190.3,135.2 L 183.0,142.4 L 175.8,149.6 L 168.5,156.7 L 161.2,163.9 L 155.4,172.6 L 148.2,179.8 L 142.4,188.4 L 135.1,195.6 L 129.3,204.2 L 123.5,212.8 L 116.2,220.0 L 110.4,228.6 L 104.6,237.3 L 98.8,245.9 L 93.0,254.5 L 87.2,263.2 L 81.3,271.8 L 77.0,281.9 L 71.2,290.5 L 66.8,300.5 L 62.5,310.6 L 58.1,320.7 L 55.2,332.2 L 52.3,343.7 L 50.8,356.6 L 49.4,369.6 L 47.9,382.5 L 45.0,394.0 L 40.7,404.1 L 34.9,412.7 L 26.1,418.5 L 18.9,425.7 L 18.9,437.2 L 26.1,444.3 L 34.9,450.1 L 43.6,455.9 L 50.8,463.0 L 59.6,468.8 L 68.3,474.5 L 75.5,481.7 L 84.2,487.5 L 91.5,494.7 L 101.7,499.0 L 111.8,503.3 L 123.5,503.3 L 124.9,490.4 L 122.0,478.9 L 116.2,470.2 L 111.8,460.2 L 107.5,450.1 L 104.6,438.6 L 101.7,427.1 L 101.7,412.7 L 101.7,398.3 L 101.7,384.0 L 101.7,369.6 L 101.7,355.2 L 104.6,343.7 L 106.0,330.7 L 108.9,319.2 L 111.8,307.7 L 116.2,297.7 L 123.5,290.5 L 130.7,283.3 L 140.9,279.0 L 151.1,277.5 L 161.2,281.9 L 171.4,283.3 L 180.1,277.5 L 185.9,268.9 L 193.2,261.7 L 199.0,253.1 L 206.3,245.9 L 212.1,237.3 L 217.9,228.6 L 225.2,221.5 L 229.5,211.4 L 229.5,197.0 L 226.6,185.5 L 226.6,171.1 L 232.4,162.5 L 238.2,153.9 L 246.9,148.1 L 254.2,140.9 L 262.9,135.2 L 270.2,128.0 L 278.9,122.2 L 286.2,115.0 L 293.4,107.9 L 302.1,102.1 L 310.9,96.3 L 318.1,89.2 L 328.3,84.8 L 341.4,83.4 L 354.4,84.8 L 364.6,89.2 L 373.3,94.9 L 382.0,100.7 L 389.3,107.9 L 398.0,113.6 L 406.7,119.4 L 414.0,126.5 L 422.7,132.3 L 431.4,138.0 L 438.7,145.2 L 447.4,151.0 L 456.1,156.7 L 464.8,162.5 L 472.1,169.7 L 480.8,175.4 L 489.5,181.2 L 496.8,188.4 L 505.5,194.1 L 514.2,199.9 L 521.5,207.1 L 528.7,214.3 L 533.1,224.3 L 536.0,235.8 L 537.5,248.8 L 546.2,254.5 L 556.3,258.8 L 566.5,260.3 L 573.8,253.1 L 581.0,245.9 L 588.3,238.7 L 598.5,237.3 L 608.6,241.6 L 617.3,247.3 L 627.5,251.7 L 637.7,256.0 L 646.4,261.7 L 655.1,267.5 L 663.8,273.2 L 672.5,279.0 L 681.3,284.7 L 690.0,290.5 L 700.1,294.8 L 707.4,302.0 L 717.6,306.3 L 726.3,312.0 L 736.5,316.4 L 745.2,322.1 L 755.3,326.4 L 765.5,330.7 L 775.7,335.1 L 785.8,339.4 L 796.0,343.7 L 806.2,348.0 L 817.8,350.9 L 828.0,355.2 L 838.1,359.5 L 851.2,360.9 L 862.8,363.8 L 875.9,365.3 L 887.5,368.1 L 902.1,368.1 L 916.6,368.1 L 931.1,368.1 L 945.6,368.1 L 957.3,365.3 L 971.8,365.3 L 981.9,360.9 L 993.6,358.1 L 1003.7,353.8 L 1013.9,349.4 L 1024.1,345.1 L 1032.8,339.4 L 1043.0,335.1 L 1051.7,329.3 L 1060.4,323.6 L 1069.1,317.8 L 1077.8,312.0 L 1086.5,306.3 L 1095.2,300.5 L 1104.0,294.8 L 1112.7,289.0 L 1121.4,283.3 L 1130.1,277.5 L 1138.8,271.8 L 1149.0,267.5 L 1156.3,260.3 L 1166.4,256.0 L 1173.7,248.8 L 1183.9,244.5 L 1191.1,237.3 L 1191.1,225.8 L 1182.4,220.0 L 1173.7,214.3 L 1163.5,210.0 L 1153.3,205.6 L 1143.2,210.0 L 1137.4,218.6 L 1131.6,227.2 L 1125.8,235.8 L 1119.9,244.5 L 1112.7,251.7 L 1104.0,257.4 L 1093.8,261.7 L 1083.6,260.3 L 1074.9,254.5 L 1069.1,245.9 L 1067.6,235.8 L 1069.1,222.9 L 1073.5,212.8 L 1077.8,202.8 L 1083.6,194.1 L 1089.4,185.5 L 1095.2,176.9 L 1101.1,168.2 L 1105.4,158.2 L 1112.7,151.0 L 1119.9,143.8 L 1127.2,136.6 L 1133.0,128.0 L 1131.6,117.9 L 1118.5,116.5 L 1106.9,119.4 L 1092.3,119.4 L 1080.7,122.2 L 1069.1,125.1 L 1057.5,128.0 L 1044.4,129.4 L 1031.3,130.9 L 1019.7,133.7 L 1008.1,136.6 L 996.5,139.5 L 981.9,139.5 L 970.3,142.4 L 958.7,145.2 L 947.1,148.1 L 934.0,149.6 L 920.9,151.0 L 910.8,155.3 L 905.0,163.9 L 899.1,172.6 L 899.1,186.9 L 896.2,198.4 L 896.2,212.8 L 893.3,224.3 L 891.9,237.3 L 887.5,247.3 L 884.6,258.8 L 878.8,267.5 L 873.0,276.1 L 865.7,283.3 L 857.0,289.0 L 848.3,294.8 L 836.7,297.7 L 826.5,302.0 L 813.4,303.4 L 801.8,300.5 L 790.2,297.7 L 781.5,291.9 L 771.3,287.6 L 762.6,281.9 L 753.9,276.1 L 745.2,270.3 L 736.5,264.6 L 727.7,258.8 L 719.0,253.1 L 710.3,247.3 L 701.6,241.6 L 692.9,235.8 L 684.2,230.1 L 674.0,225.8 L 663.8,221.5 L 653.7,217.1 L 644.9,211.4 L 634.8,207.1 L 624.6,202.8 L 614.4,198.4 L 605.7,192.7 L 595.6,188.4 L 586.8,182.6 L 578.1,176.9 L 569.4,171.1 L 560.7,165.4 L 552.0,159.6 L 543.3,153.9 L 534.5,148.1 L 525.8,142.4 L 517.1,136.6 L 507.0,132.3 L 498.2,126.5 L 489.5,120.8 L 480.8,115.0 L 472.1,109.3 L 463.4,103.5 L 453.2,99.2 L 444.5,93.5 L 435.8,87.7 L 427.1,82.0 L 418.3,76.2 L 409.6,70.5 L 400.9,64.7 L 392.2,59.0 L 383.5,53.2 L 373.3,48.9 L 364.6,43.1 L 357.3,36.0 L 351.5,27.3 L 344.3,20.1 L 334.1,15.8 L 323.9,20.1 L 315.2,25.9 L 307.9,33.1 L 300.7,40.3 L 292.0,46.0 L 284.7,53.2 L 277.4,60.4 L 268.7,66.1 L 261.5,73.3 L 252.7,79.1 L 245.5,86.3 L 238.2,93.5 L 229.5,99.2 L 222.2,106.4 L 215.0,113.6 L 210.6,106.4 L 213.5,94.9 L 220.8,87.7 L 228.1,80.5 L 235.3,73.3 L 244.0,67.6 L 251.3,60.4 L 260.0,54.6 L 267.3,47.5 L 274.5,40.3 L 283.3,34.5 L 290.5,27.3 L 299.2,21.6 L 306.5,14.4 L 313.8,7.2 L 322.5,1.4 Z" />
</svg>