<svg viewBox="0 0 3000 2500" xmlns="http://www.w3.org/2000/svg">
  <path d="M 200 1300 L 600 700 C 700 550, 850 650, 800 800 C 750 950, 1200 1300, 1600 1100 C 1800 1000, 2200 600, 2500 550 C 2700 500, 2800 650, 2800 850 C 2800 1050, 2600 1100, 2400 1100 C 2100 1100, 2100 1500, 2400 1500 C 2600 1500, 2800 1600, 2700 1900 C 2600 2200, 2000 2300, 1400 2200 C 1300 2150, 1250 2250, 1150 2250 C 1050 2250, 1000 2150, 900 2150 C 800 2150, 800 2000, 850 1850 C 900 1700, 1100 1750, 1150 1600 C 1200 1450, 1100 1350, 1150 1200 C 1200 950, 700 950, 650 1200 C 600 1500, 100 1500, 200 1300 Z" />
</svg>
