<svg xmlns="http://www.w3.org/2000/svg" viewBox="0 0 780.8 378.0">
<path d="M 466.18,362.80 L 461.46,362.60 L 456.74,362.40 L 452.03,362.20 L 447.31,362.00 L 442.51,362.00 L 437.71,362.00 L 432.91,362.00 L 428.11,362.00 L 423.32,362.00 L 418.52,362.00 L 413.72,362.00 L 408.92,362.00 L 404.12,362.00 L 399.32,362.00 L 394.52,362.00 L 389.72,362.00 L 384.92,362.00 L 380.12,362.00 L 375.33,362.00 L 370.53,362.00 L 365.73,362.00 L 360.93,362.00 L 356.13,362.00 L 351.33,362.00 L 346.53,362.00 L 341.73,362.00 L 336.93,362.00 L 332.13,362.00 L 327.33,362.00 L 322.54,362.00 L 317.74,362.00 L 312.94,362.00 L 308.22,361.80 L 303.51,361.60 L 298.79,361.40 L 294.07,361.20 L 289.36,361.00 L 284.64,361.20 L 279.92,361.40 L 275.21,361.60 L 270.57,361.60 L 265.94,361.60 L 261.22,361.40 L 256.51,361.20 L 251.79,361.00 L 247.14,360.64 L 242.91,359.55 L 238.81,358.15 L 234.79,356.95 L 230.82,355.86 L 226.74,355.22 L 222.31,355.52 L 217.78,356.17 L 213.23,356.77 L 208.64,357.26 L 204.09,357.86 L 199.53,358.46 L 195.04,359.20 L 190.49,359.80 L 186.03,360.60 L 181.48,361.20 L 176.84,361.60 L 172.13,361.80 L 167.41,362.00 L 162.61,362.00 L 157.81,362.00 L 153.01,362.00 L 148.21,362.00 L 143.41,362.00 L 138.62,362.00 L 133.82,362.00 L 129.10,361.80 L 124.38,361.60 L 119.71,361.30 L 115.14,360.75 L 110.67,359.95 L 106.20,359.15 L 101.82,358.15 L 97.49,357.02 L 93.20,355.77 L 88.82,354.77 L 84.43,353.77 L 80.05,352.77 L 75.65,351.80 L 71.22,350.93 L 67.21,349.32 L 63.82,347.05 L 60.96,344.17 L 58.67,340.66 L 56.55,336.74 L 54.42,332.82 L 51.89,329.07 L 49.28,325.35 L 46.45,321.72 L 43.77,318.04 L 41.30,314.26 L 39.50,310.21 L 37.90,306.07 L 36.64,301.79 L 35.72,297.37 L 34.92,292.91 L 33.74,288.60 L 32.74,284.21 L 31.74,279.83 L 30.83,275.41 L 30.03,270.94 L 29.60,266.31 L 29.40,261.70 L 29.58,257.02 L 30.08,252.32 L 30.85,247.60 L 31.82,242.90 L 32.79,238.20 L 33.76,233.50 L 34.72,228.80 L 35.69,224.10 L 36.66,219.40 L 37.62,214.69 L 38.59,209.99 L 39.56,205.29 L 40.53,200.59 L 41.49,195.89 L 42.46,191.19 L 43.43,186.49 L 44.40,181.79 L 45.36,177.09 L 46.33,172.39 L 47.30,167.69 L 48.26,162.99 L 49.23,158.29 L 50.20,153.59 L 51.17,148.89 L 52.13,144.19 L 53.10,139.49 L 54.07,134.78 L 55.03,130.08 L 56.00,125.38 L 56.97,120.68 L 57.94,115.98 L 58.90,111.28 L 59.87,106.58 L 60.84,101.88 L 61.80,97.18 L 62.77,92.48 L 63.74,87.78 L 64.71,83.08 L 65.67,78.38 L 66.64,73.68 L 67.61,68.98 L 68.58,64.28 L 69.54,59.58 L 70.51,54.88 L 71.48,50.17 L 72.44,45.47 L 73.41,40.77 L 74.38,36.07 L 75.35,31.37 L 76.31,26.67 L 77.51,22.26 L 79.31,19.18 L 81.69,17.51 L 84.69,17.11 L 88.30,18.06 L 92.25,20.10 L 95.95,22.48 L 99.29,25.19 L 102.33,28.31 L 105.11,31.76 L 107.66,35.51 L 110.08,39.30 L 112.60,43.06 L 115.14,46.80 L 117.69,50.55 L 120.10,54.35 L 122.63,58.10 L 125.17,61.84 L 127.86,65.53 L 130.55,69.22 L 133.51,72.79 L 136.62,76.30 L 139.87,79.75 L 143.12,83.20 L 146.52,86.60 L 149.91,89.99 L 153.30,93.38 L 156.70,96.78 L 160.09,100.17 L 163.48,103.56 L 166.94,106.82 L 170.39,110.07 L 173.84,113.32 L 177.29,116.57 L 180.74,119.82 L 184.14,123.22 L 187.53,126.61 L 190.98,129.86 L 194.43,133.11 L 197.89,136.37 L 201.34,139.62 L 204.79,142.87 L 208.18,146.26 L 211.58,149.66 L 214.97,153.05 L 218.42,156.30 L 221.88,159.56 L 225.33,162.81 L 228.78,166.06 L 232.23,169.31 L 235.62,172.70 L 239.02,176.10 L 242.41,179.49 L 245.86,182.74 L 249.32,186.00 L 252.77,189.25 L 256.22,192.50 L 259.67,195.75 L 263.07,199.15 L 266.46,202.54 L 269.85,205.93 L 273.30,209.18 L 276.76,212.44 L 280.21,215.69 L 283.66,218.94 L 287.11,222.19 L 290.43,225.62 L 293.40,229.19 L 296.09,232.87 L 298.94,236.15 L 301.99,238.56 L 305.40,240.25 L 309.35,240.92 L 313.87,240.80 L 318.51,240.40 L 323.14,240.00 L 327.77,239.60 L 332.41,239.20 L 336.90,238.74 L 341.00,238.94 L 344.99,239.81 L 348.76,241.22 L 352.33,243.50 L 355.76,246.53 L 359.05,249.68 L 361.94,253.16 L 364.86,256.55 L 368.07,259.27 L 371.47,261.10 L 375.40,262.16 L 379.94,262.40 L 384.57,262.40 L 389.20,262.40 L 393.92,262.60 L 398.64,262.80 L 403.35,263.00 L 408.15,263.00 L 412.95,263.00 L 417.75,263.00 L 422.47,263.20 L 427.18,263.40 L 431.90,263.60 L 436.61,263.80 L 441.33,264.00 L 446.13,264.00 L 450.93,264.00 L 455.73,264.00 L 460.46,264.17 L 465.17,264.37 L 469.89,264.57 L 474.60,264.77 L 479.32,264.97 L 484.11,265.00 L 488.91,265.00 L 493.71,265.00 L 498.50,265.00 L 503.30,265.00 L 508.02,265.20 L 512.74,265.40 L 517.45,265.60 L 522.17,265.80 L 526.88,266.00 L 531.68,266.00 L 536.48,266.00 L 541.28,266.00 L 546.08,266.00 L 550.88,266.00 L 555.68,266.00 L 560.40,266.20 L 565.11,266.40 L 569.83,266.60 L 574.54,266.80 L 579.26,267.00 L 584.06,267.00 L 588.86,267.00 L 593.66,267.00 L 598.46,267.00 L 603.26,267.00 L 608.05,267.00 L 612.77,267.20 L 617.49,267.40 L 622.20,267.60 L 626.92,267.80 L 631.64,268.00 L 636.43,268.00 L 641.23,268.00 L 646.03,268.00 L 650.83,268.00 L 655.63,268.00 L 660.43,268.00 L 665.15,268.20 L 669.86,268.40 L 674.58,268.60 L 679.29,268.80 L 684.01,269.00 L 688.81,269.00 L 693.61,269.00 L 698.41,269.00 L 703.21,269.00 L 708.01,269.00 L 712.81,269.00 L 717.52,269.20 L 722.15,269.60 L 726.71,270.20 L 731.17,271.00 L 735.56,272.00 L 739.94,273.00 L 744.00,274.51 L 747.27,276.74 L 749.67,279.73 L 751.19,283.48 L 751.83,287.99 L 751.92,292.75 L 751.72,297.46 L 751.32,302.10 L 750.79,306.68 L 749.87,311.09 L 748.55,315.34 L 746.89,319.46 L 744.89,323.43 L 742.34,327.17 L 739.46,330.66 L 736.29,334.03 L 732.91,337.17 L 729.28,340.00 L 725.60,342.68 L 721.79,345.09 L 717.87,347.20 L 713.84,349.06 L 709.78,350.84 L 705.58,352.28 L 701.35,353.67 L 697.02,354.81 L 692.69,355.94 L 688.27,356.85 L 683.80,357.65 L 679.31,358.38 L 674.78,359.04 L 670.16,359.46 L 665.56,359.95 L 660.93,360.35 L 656.32,360.82 L 651.69,361.22 L 647.05,361.60 L 642.33,361.80 L 637.70,362.20 L 632.98,362.40 L 628.27,362.60 L 623.63,363.00 L 619.00,363.40 L 614.28,363.60 L 609.57,363.80 L 604.85,364.00 L 600.05,364.00 L 595.25,364.00 L 590.45,364.00 L 585.66,364.00 L 580.86,364.00 L 576.06,364.00 L 571.26,364.00 L 566.46,364.00 L 561.66,364.00 L 556.86,364.00 L 552.06,364.00 L 547.26,364.00 L 542.46,364.00 L 537.66,364.00 L 532.87,364.00 L 528.07,364.00 L 523.27,364.00 L 518.55,363.80 L 513.84,363.60 L 509.12,363.40 L 504.40,363.20 L 499.69,363.00 L 494.89,363.00 L 490.09,363.00 L 485.29,363.00 L 480.49,363.00 L 475.69,363.00 L 470.89,363.00 Z" fill="none" stroke="black" stroke-width="8"/>
</svg>