<svg viewBox="0 -100 3000 1400" xmlns="http://www.w3.org/2000/svg">
  <path d="M 500 100 L 2200 100 C 2500 100, 2600 200, 2600 350 C 2600 500, 2500 600, 2200 600 L 1500 600 C 1300 600, 1200 700, 1200 800 C 1200 900, 1300 1000, 1500 1000 L 2200 1000 C 2700 1000, 2900 1100, 2900 1200 C 2900 1300, 2700 1350, 2200 1350 L 400 1350 C 100 1350, 50 1200, 50 1100 C 50 1000, 100 850, 400 850 L 800 850 C 1000 850, 1100 750, 1100 600 C 1100 450, 1000 350, 800 350 L 400 350 C 100 350, 100 100, 500 100 Z" stroke="#FACC15" stroke-width="12" fill="rgba(250,204,21,0.08)"/>
</svg>
