<svg viewBox="0 0 3000 1600" xmlns="http://www.w3.org/2000/svg">
  <path d="M 2500 300 L 1800 700 C 1700 750, 1750 850, 1650 850 C 1550 850, 1500 750, 1400 800 C 1300 850, 1250 950, 1150 950 C 1050 950, 1000 850, 900 850 C 800 850, 750 950, 650 950 C 550 950, 450 1050, 350 1050 C 100 1050, 100 1350, 350 1350 C 450 1350, 500 1200, 650 1200 C 800 1200, 850 1350, 950 1350 C 1050 1350, 1100 1200, 1250 1200 C 1400 1200, 1450 1100, 1600 1100 C 1750 1100, 1850 1250, 2050 1250 C 2250 1250, 2450 1200, 2600 1000 C 2800 700, 2800 300, 2500 300 Z" />
</svg>
