<svg xmlns="http://www.w3.org/2000/svg" viewBox="0 0 1598 975">
<path d="M 498.25,437.28 L 491.45,435.33 L 485.01,432.29 L 478.75,428.42 L 472.73,423.98 L 466.72,419.52 L 460.74,414.94 L 454.77,410.38 L 448.80,405.81 L 442.83,401.24 L 436.86,396.67 L 430.89,392.10 L 424.86,387.66 L 418.89,383.09 L 412.86,378.66 L 406.89,374.09 L 400.92,369.52 L 394.95,364.95 L 388.98,360.38 L 383.01,355.81 L 377.04,351.24 L 371.01,346.81 L 365.04,342.24 L 359.01,337.81 L 353.04,333.24 L 347.01,328.81 L 341.04,324.24 L 335.01,319.81 L 329.04,315.24 L 323.41,310.41 L 318.46,305.06 L 314.44,299.21 L 311.45,292.70 L 309.63,285.59 L 308.84,278.22 L 308.80,270.71 L 309.20,263.17 L 310.00,255.64 L 311.00,248.19 L 312.00,240.74 L 312.80,233.21 L 313.40,225.59 L 313.60,217.98 L 313.20,210.44 L 312.00,203.08 L 310.11,195.99 L 307.51,189.21 L 304.17,182.73 L 300.25,176.49 L 295.96,170.40 L 291.39,164.43 L 286.56,158.56 L 281.71,152.71 L 277.00,146.80 L 272.29,140.89 L 267.57,134.97 L 263.00,129.00 L 259.00,122.80 L 255.83,116.41 L 254.05,109.80 L 254.48,103.57 L 257.12,98.12 L 261.52,93.53 L 267.32,89.94 L 274.11,87.35 L 280.45,84.30 L 285.80,80.29 L 289.22,75.50 L 290.55,69.83 L 289.12,64.01 L 285.57,58.86 L 280.21,54.72 L 273.94,51.71 L 266.96,49.58 L 259.82,47.84 L 252.53,46.44 L 245.14,45.59 L 237.78,45.19 L 230.53,45.89 L 223.68,47.86 L 217.20,51.19 L 211.11,55.47 L 205.52,60.68 L 200.10,66.30 L 194.82,71.98 L 189.54,77.66 L 184.41,83.39 L 179.13,89.07 L 173.99,94.81 L 168.86,100.54 L 163.72,106.28 L 158.44,111.96 L 153.31,117.69 L 148.03,123.37 L 142.75,129.05 L 137.47,134.73 L 132.34,140.46 L 127.06,146.14 L 121.92,151.88 L 116.64,157.56 L 111.51,163.29 L 106.29,169.00 L 101.16,174.73 L 96.02,180.47 L 90.89,186.21 L 85.75,191.94 L 80.55,197.65 L 75.41,203.39 L 70.13,209.07 L 65.00,214.80 L 59.86,220.54 L 54.86,226.33 L 49.73,232.07 L 44.73,237.87 L 39.59,243.60 L 34.46,249.34 L 29.32,255.08 L 24.63,261.00 L 20.71,267.24 L 17.90,273.94 L 16.27,280.96 L 16.00,288.21 L 17.56,295.15 L 20.72,301.03 L 25.28,305.74 L 31.13,309.15 L 38.09,311.32 L 45.41,312.64 L 52.74,313.93 L 59.95,315.50 L 66.65,318.05 L 72.29,321.82 L 76.61,326.96 L 79.12,333.10 L 79.92,339.95 L 78.52,346.45 L 75.32,352.12 L 70.43,356.50 L 64.54,359.08 L 57.66,359.85 L 50.69,359.18 L 43.78,357.27 L 37.08,354.48 L 30.45,351.48 L 23.93,348.25 L 17.43,344.95 L 10.93,341.66 L 4.39,338.45 L -2.06,335.05 L -8.38,331.33 L -14.59,327.32 L -20.62,322.89 L -26.29,317.88 L -31.69,312.51 L -36.75,306.85 L -41.46,300.94 L -45.62,294.80 L -49.42,288.51 L -52.57,281.95 L -55.17,275.16 L -57.13,268.11 L -58.73,260.91 L -59.93,253.55 L -61.00,246.12 L -62.00,238.67 L -63.00,231.22 L -64.00,223.77 L -64.80,216.24 L -65.60,208.71 L -66.40,201.18 L -67.20,193.64 L -67.80,186.03 L -68.60,178.49 L -69.20,170.88 L -69.80,163.26 L -70.20,155.57 L -70.80,147.95 L -71.20,140.25 L -71.80,132.64 L -72.26,124.96 L -72.86,117.35 L -73.46,109.73 L -74.06,102.12 L -74.46,94.42 L -74.80,86.86 L -74.80,79.33 L -74.20,71.88 L -72.83,64.75 L -70.48,58.02 L -66.97,51.73 L -62.36,46.24 L -56.83,41.56 L -50.75,37.54 L -44.24,34.28 L -37.49,31.60 L -30.62,29.20 L -23.66,27.00 L -16.63,25.00 L -9.59,23.00 L -2.47,21.20 L 4.64,19.40 L 11.85,17.80 L 19.08,16.28 L 26.37,14.89 L 33.74,13.69 L 41.19,12.69 L 48.64,11.69 L 56.19,10.94 L 63.80,10.33 L 71.41,9.73 L 79.03,9.13 L 86.73,8.73 L 94.46,8.40 L 102.16,8.00 L 109.85,7.60 L 117.64,7.40 L 125.33,7.00 L 133.03,6.60 L 140.73,6.20 L 148.26,5.40 L 155.57,4.05 L 162.73,2.36 L 169.60,-0.04 L 176.22,-3.05 L 182.76,-6.25 L 189.44,-9.10 L 196.27,-11.21 L 203.30,-12.40 L 210.42,-12.19 L 217.58,-10.90 L 224.62,-8.90 L 231.57,-6.70 L 238.44,-4.30 L 245.48,-2.30 L 252.64,-0.60 L 259.92,0.40 L 267.28,0.77 L 274.51,0.06 L 281.49,-1.69 L 288.15,-4.60 L 294.54,-8.14 L 300.76,-12.12 L 307.18,-15.60 L 313.95,-18.26 L 321.03,-19.74 L 328.21,-19.80 L 335.22,-18.14 L 341.68,-15.10 L 347.29,-10.79 L 352.24,-5.44 L 356.55,0.59 L 360.49,6.82 L 364.29,13.11 L 368.44,19.26 L 372.87,25.29 L 377.90,30.72 L 383.43,35.63 L 389.41,40.08 L 395.64,44.02 L 402.02,47.60 L 408.42,51.13 L 414.82,54.67 L 421.27,58.09 L 427.68,61.59 L 434.12,65.03 L 440.54,68.51 L 446.98,71.95 L 453.41,75.41 L 459.85,78.85 L 466.30,82.26 L 472.74,85.70 L 479.19,89.13 L 485.63,92.57 L 492.07,96.00 L 498.52,99.40 L 505.02,102.70 L 511.48,106.10 L 517.97,109.41 L 524.42,112.82 L 530.88,116.22 L 537.32,119.66 L 543.77,123.06 L 550.21,126.49 L 556.67,129.89 L 563.12,133.30 L 569.52,136.85 L 575.97,140.25 L 582.36,143.81 L 588.77,147.31 L 595.15,150.90 L 601.52,154.50 L 607.85,158.21 L 614.17,161.95 L 620.49,165.67 L 626.76,169.53 L 633.01,173.41 L 639.22,177.42 L 645.42,181.42 L 651.57,185.57 L 657.72,189.72 L 663.86,193.86 L 669.95,198.15 L 675.92,202.72 L 681.55,207.67 L 686.55,213.11 L 690.52,219.21 L 693.51,225.84 L 695.20,232.84 L 695.60,240.04 L 694.77,247.22 L 692.91,254.15 L 689.66,260.53 L 685.34,266.13 L 680.07,270.88 L 674.09,274.86 L 667.65,278.30 L 661.12,281.50 L 654.61,284.78 L 648.21,288.31 L 641.91,292.10 L 635.71,296.11 L 629.56,300.24 L 623.48,304.55 L 617.53,309.16 L 611.65,313.95 L 605.85,318.95 L 600.17,324.21 L 594.49,329.49 L 588.75,334.63 L 583.08,339.91 L 577.34,345.04 L 571.55,350.05 L 565.75,355.05 L 560.51,360.39 L 556.38,366.02 L 553.81,372.09 L 553.33,378.39 L 554.31,385.17 L 555.91,392.04 L 557.11,398.91 L 556.76,405.35 L 554.36,411.64 L 550.43,417.29 L 545.25,422.30 L 539.16,426.53 L 532.80,430.18 L 526.21,433.26 L 519.34,435.66 L 512.32,437.28 L 505.20,437.88 Z" fill="none" stroke="red" stroke-width="4"/>
</svg>