<svg xmlns="http://www.w3.org/2000/svg" viewBox="0 0 1022.8 682.6">
<path d="M 976.47,342.59 L 976.53,337.31 L 975.71,332.40 L 974.04,327.56 L 972.06,322.58 L 971.02,317.21 L 970.31,311.70 L 969.64,306.18 L 968.83,300.71 L 967.88,295.30 L 967.17,289.79 L 966.51,284.27 L 965.84,278.74 L 964.88,273.33 L 963.88,267.95 L 963.09,262.47 L 962.42,256.95 L 961.76,251.42 L 960.88,245.98 L 959.88,240.59 L 959.01,235.15 L 958.34,229.62 L 957.67,224.10 L 956.88,218.62 L 955.88,213.24 L 954.92,207.83 L 954.11,202.37 L 953.44,196.84 L 952.73,191.33 L 951.88,185.88 L 950.88,180.49 L 949.98,175.06 L 949.32,169.54 L 948.65,164.01 L 947.88,158.53 L 947.21,153.00 L 946.55,147.47 L 945.88,141.95 L 945.21,136.42 L 944.55,130.90 L 944.05,125.30 L 943.38,119.77 L 942.71,114.25 L 941.88,108.79 L 941.05,103.33 L 940.37,97.81 L 939.70,92.28 L 938.86,86.83 L 937.88,81.44 L 936.97,76.01 L 936.20,70.53 L 935.11,65.18 L 933.13,60.19 L 929.45,56.96 L 924.63,55.05 L 919.06,54.49 L 913.67,53.49 L 908.28,52.49 L 903.11,50.98 L 897.86,49.64 L 892.61,48.31 L 888.10,46.13 L 884.47,42.76 L 881.28,38.35 L 877.88,33.95 L 873.92,29.99 L 869.59,27.33 L 864.77,27.16 L 859.79,29.16 L 854.90,32.28 L 850.01,35.40 L 845.11,38.52 L 840.22,41.64 L 835.33,44.76 L 830.44,47.88 L 825.54,51.00 L 820.65,54.12 L 815.76,57.24 L 810.87,60.36 L 805.97,63.48 L 801.08,66.60 L 796.19,69.72 L 791.30,72.84 L 786.40,75.96 L 781.51,79.08 L 776.62,82.20 L 771.73,85.32 L 766.84,88.44 L 761.94,91.56 L 757.05,94.68 L 752.16,97.80 L 747.27,100.92 L 742.37,104.04 L 737.48,107.16 L 732.59,110.28 L 727.70,113.40 L 722.80,116.52 L 717.91,119.64 L 713.02,122.76 L 708.13,125.88 L 703.24,129.00 L 698.34,132.12 L 693.45,135.23 L 688.56,138.35 L 683.67,141.47 L 678.77,144.59 L 673.88,147.71 L 668.99,150.83 L 664.10,153.95 L 659.20,157.07 L 654.31,160.19 L 649.42,163.31 L 644.53,166.43 L 639.64,169.55 L 634.74,172.67 L 629.85,175.79 L 624.96,178.91 L 620.07,182.03 L 615.17,185.15 L 610.28,188.27 L 605.39,191.39 L 600.50,194.51 L 595.60,197.63 L 590.71,200.75 L 585.82,203.87 L 580.93,206.99 L 576.04,210.11 L 571.14,213.23 L 566.25,216.35 L 561.36,219.47 L 556.47,222.59 L 551.57,225.71 L 546.68,228.83 L 541.79,231.95 L 536.90,235.07 L 532.00,238.19 L 527.11,241.31 L 522.22,244.43 L 517.33,247.55 L 512.43,250.67 L 507.54,253.78 L 502.65,256.90 L 497.76,260.02 L 492.87,263.14 L 487.97,266.26 L 483.08,269.38 L 478.19,272.50 L 473.30,275.62 L 468.40,278.74 L 463.51,281.86 L 458.62,284.98 L 453.73,288.10 L 448.83,291.22 L 443.94,294.34 L 439.05,297.46 L 434.16,300.58 L 429.27,303.70 L 424.37,306.82 L 419.48,309.94 L 414.59,313.06 L 409.70,316.18 L 404.80,319.30 L 399.91,322.42 L 395.02,325.54 L 390.13,328.66 L 385.23,331.78 L 380.34,334.90 L 375.45,338.02 L 370.56,341.14 L 365.67,344.26 L 360.77,347.38 L 355.88,350.50 L 350.99,353.62 L 346.10,356.74 L 341.20,359.86 L 336.31,362.98 L 331.42,366.10 L 326.53,369.22 L 321.63,372.34 L 316.74,375.45 L 311.85,378.57 L 306.96,381.69 L 302.07,384.81 L 297.17,387.93 L 292.28,391.05 L 287.39,394.17 L 282.50,397.29 L 277.60,400.41 L 272.71,403.53 L 267.82,406.65 L 262.93,409.77 L 258.03,412.89 L 253.14,416.01 L 248.25,419.13 L 243.36,422.25 L 238.47,425.37 L 233.57,428.49 L 228.68,431.61 L 223.79,434.73 L 218.90,437.85 L 214.00,440.97 L 209.11,444.09 L 204.22,447.21 L 199.33,450.33 L 194.43,453.45 L 189.54,456.57 L 184.65,459.69 L 179.76,462.81 L 174.86,465.93 L 169.97,469.05 L 165.08,472.17 L 160.19,475.29 L 155.30,478.41 L 150.40,481.53 L 145.51,484.65 L 140.62,487.77 L 135.73,490.89 L 130.83,494.00 L 125.94,497.12 L 121.05,500.24 L 116.16,503.36 L 111.26,506.48 L 106.37,509.60 L 101.48,512.72 L 96.59,515.84 L 91.70,518.96 L 86.80,522.08 L 81.91,525.20 L 77.02,528.32 L 72.13,531.44 L 67.23,534.56 L 62.34,537.68 L 57.45,540.80 L 52.56,543.92 L 47.66,547.04 L 42.77,550.16 L 41.44,552.24 L 43.43,552.67 L 48.51,550.92 L 53.48,548.92 L 58.30,547.20 L 63.22,547.37 L 67.27,549.32 L 70.93,553.08 L 74.38,557.45 L 78.25,561.65 L 82.35,565.75 L 86.55,569.62 L 90.85,573.25 L 95.21,576.73 L 99.51,580.36 L 103.81,583.99 L 108.14,587.54 L 112.54,590.94 L 116.93,594.33 L 121.33,597.73 L 125.72,601.12 L 130.02,604.76 L 133.99,608.72 L 137.38,613.12 L 140.31,617.71 L 143.00,622.40 L 145.85,627.02 L 148.78,631.61 L 151.70,636.20 L 154.46,640.86 L 157.62,645.35 L 160.88,649.61 L 164.80,653.20 L 169.02,655.41 L 173.24,654.96 L 176.55,651.95 L 179.58,647.62 L 182.09,643.46 L 183.09,639.37 L 183.05,634.83 L 182.65,629.55 L 183.32,624.03 L 183.98,618.50 L 184.88,613.07 L 185.88,607.68 L 186.88,602.29 L 187.88,596.90 L 188.88,591.52 L 189.88,586.13 L 190.88,580.74 L 191.88,575.35 L 192.81,569.94 L 193.81,564.55 L 194.48,559.02 L 195.28,553.55 L 195.95,548.02 L 196.96,542.64 L 197.89,537.23 L 198.89,531.84 L 199.88,526.44 L 200.88,521.06 L 201.88,515.67 L 202.88,510.28 L 203.88,504.89 L 204.88,499.50 L 205.88,494.12 L 206.87,488.72 L 207.71,483.27 L 208.41,477.75 L 209.09,472.23 L 209.91,466.77 L 210.88,461.37 L 211.88,455.98 L 212.66,450.51 L 213.66,445.12 L 214.66,439.73 L 215.88,434.43 L 216.88,429.04 L 218.12,423.75 L 219.45,418.50 L 221.11,413.39 L 222.62,408.21 L 224.29,403.10 L 225.96,397.99 L 227.71,392.91 L 229.53,387.86 L 231.35,382.81 L 233.18,377.77 L 235.03,372.73 L 236.88,367.70 L 239.21,363.06 L 241.21,358.28 L 243.21,353.50 L 244.88,348.39 L 246.88,343.42 L 248.88,338.44 L 251.07,333.54 L 254.15,329.41 L 258.13,326.03 L 262.81,323.35 L 267.50,320.66 L 272.09,319.54 L 276.02,320.88 L 279.94,322.62 L 283.79,322.38 L 288.69,320.59 L 293.76,319.72 L 299.15,320.72 L 304.23,322.48 L 309.01,324.94 L 313.56,327.96 L 317.86,331.59 L 322.16,335.22 L 326.45,338.86 L 330.75,342.50 L 335.05,346.13 L 339.25,349.99 L 343.22,353.95 L 347.37,357.46 L 351.63,360.72 L 356.18,363.73 L 360.49,367.34 L 364.79,370.97 L 369.12,374.52 L 373.52,377.92 L 377.91,381.31 L 382.31,384.71 L 386.73,388.03 L 391.42,390.72 L 396.11,392.15 L 400.87,391.62 L 405.26,389.23 L 409.56,388.12 L 412.49,389.76 L 414.26,394.62 L 415.30,399.99 L 417.91,403.93 L 421.98,406.64 L 427.35,407.68 L 432.76,408.62 L 438.29,409.29 L 443.82,409.95 L 449.48,410.28 L 455.15,410.61 L 460.81,410.95 L 466.48,411.28 L 472.28,411.28 L 478.08,411.28 L 483.74,411.61 L 489.41,411.95 L 495.07,412.28 L 500.80,412.47 L 506.46,412.80 L 512.13,413.13 L 517.87,413.28 L 523.67,413.28 L 529.47,413.28 L 535.14,413.61 L 540.80,413.95 L 546.47,414.28 L 552.27,414.28 L 557.93,413.95 L 563.60,413.61 L 569.26,413.28 L 575.06,413.28 L 580.79,413.47 L 586.32,414.13 L 591.84,414.80 L 597.31,415.61 L 602.83,416.28 L 608.36,416.95 L 614.02,417.28 L 619.83,417.28 L 625.49,417.61 L 631.15,417.95 L 636.82,418.28 L 642.62,418.28 L 648.42,418.28 L 654.23,418.28 L 659.89,418.61 L 665.55,418.95 L 671.22,419.28 L 676.88,419.61 L 682.55,419.95 L 688.21,420.28 L 694.01,420.28 L 699.82,420.28 L 705.48,420.61 L 711.14,420.95 L 716.67,421.61 L 722.34,421.95 L 728.00,422.28 L 733.66,422.61 L 739.02,423.68 L 743.72,426.16 L 747.14,430.02 L 749.07,435.02 L 749.74,440.54 L 749.88,446.29 L 750.21,451.95 L 751.27,457.28 L 753.99,461.35 L 757.65,464.85 L 761.42,468.34 L 765.19,471.83 L 769.40,474.59 L 774.58,476.10 L 779.90,477.28 L 785.42,477.95 L 791.09,478.28 L 796.75,478.61 L 802.42,478.95 L 808.08,479.28 L 813.74,479.61 L 819.41,479.95 L 825.07,480.28 L 830.88,480.28 L 836.54,480.61 L 842.20,480.95 L 847.87,481.28 L 853.53,481.61 L 859.20,481.95 L 864.86,482.28 L 870.66,482.28 L 876.33,482.61 L 881.99,482.95 L 887.66,483.28 L 893.46,483.28 L 899.26,483.28 L 905.06,483.28 L 910.87,483.28 L 916.39,483.28 L 921.92,483.28 L 927.44,483.28 L 933.25,483.28 L 938.91,482.95 L 944.25,481.82 L 948.78,479.23 L 952.42,475.41 L 955.34,470.82 L 958.08,466.15 L 960.93,461.53 L 963.85,456.94 L 966.72,452.33 L 969.49,447.67 L 972.42,443.08 L 975.34,438.49 L 978.26,433.90 L 980.03,429.10 L 980.90,423.94 L 980.88,418.40 L 981.70,412.94 L 983.03,407.69 L 984.03,402.58 L 983.88,397.26 L 982.69,391.95 L 981.69,386.56 L 980.69,381.18 L 979.88,375.71 L 978.88,370.32 L 977.94,364.91 L 977.28,359.38 L 976.86,353.75 L 976.47,348.11 Z" fill="none" stroke="black" stroke-width="8"/>
</svg>