<svg viewBox="0 0 5000 3000" xmlns="http://www.w3.org/2000/svg">
  <path d="M 1500 2700 C 1900 2680, 2800 2550, 3400 2400 C 3650 2330, 3800 2200, 3900 2000 C 4000 1800, 4000 1550, 3950 1350 C 3900 1150, 3900 950, 4000 750 C 4100 580, 4150 450, 4050 370 C 3950 290, 3820 280, 3680 310 C 3530 340, 3380 410, 3240 500 C 3050 620, 2850 720, 2650 790 C 2480 840, 2320 860, 2150 870 C 2000 880, 1900 920, 1830 990 C 1760 1060, 1730 1150, 1710 1260 C 1690 1370, 1660 1450, 1600 1530 C 1500 1650, 1300 1730, 1050 1810 C 850 1870, 700 1910, 580 1940 C 480 1960, 400 1970, 340 1980 C 250 2000, 200 2060, 200 2150 C 200 2250, 250 2340, 350 2380 C 450 2420, 550 2410, 640 2360 C 730 2310, 790 2230, 830 2130 C 870 2020, 890 1900, 900 1770 C 910 1630, 910 1490, 890 1350 C 870 1210, 840 1080, 800 960 C 760 840, 720 750, 680 670 C 640 590, 590 510, 530 450 C 460 380, 380 330, 290 320 C 200 310, 130 350, 100 430 C 70 510, 90 610, 150 690 C 220 780, 330 830, 460 840 C 590 850, 700 810, 800 750 C 910 690, 1020 660, 1150 660 C 1320 660, 1430 730, 1480 870 C 1510 950, 1510 1100, 1490 1300 C 1470 1530, 1470 1800, 1480 2050 C 1490 2280, 1490 2500, 1500 2700 Z" />
</svg>
