<svg viewBox="0 0 1000 600" preserveAspectRatio="xMidYMid meet" xmlns="http://www.w3.org/2000/svg">
  <path d="M 550 500 L 200 500 C 150 500, 100 450, 100 400 C 100 350, 150 330, 200 330 C 230 330, 230 280, 260 280 C 290 280, 290 320, 320 320 C 350 320, 350 280, 380 280 C 410 280, 450 280, 480 230 C 490 200, 520 190, 530 210 C 540 230, 520 250, 530 280 L 550 320 C 570 360, 620 370, 670 370 C 730 370, 760 320, 710 310 C 660 300, 710 250, 760 200 C 810 150, 850 130, 880 120 C 920 100, 930 50, 880 50 C 830 50, 810 100, 790 120 L 480 380 C 450 405, 420 440, 450 470 C 460 480, 440 480, 440 490 C 440 500, 450 500, 470 500 Z" />
</svg>
