<svg xmlns="http://www.w3.org/2000/svg" viewBox="0 0 483.8 468.7">
<path d="M 241.84,450.16 L 235.14,449.76 L 228.69,448.77 L 222.24,447.77 L 215.79,446.77 L 209.61,446.43 L 203.66,446.23 L 197.46,446.63 L 191.10,447.43 L 184.89,447.85 L 178.41,447.58 L 171.71,447.18 L 165.10,446.58 L 158.65,446.39 L 152.13,446.77 L 145.59,447.17 L 139.06,447.57 L 132.45,448.17 L 125.66,448.36 L 118.80,448.36 L 112.02,448.56 L 105.23,448.76 L 98.45,448.96 L 91.67,449.16 L 84.89,449.36 L 78.03,449.36 L 71.25,449.56 L 64.47,449.76 L 57.69,449.96 L 50.90,450.16 L 44.27,450.00 L 37.82,449.00 L 31.81,447.10 L 26.77,443.99 L 23.10,439.67 L 20.86,434.42 L 20.27,428.66 L 21.60,422.84 L 24.41,417.56 L 28.52,413.27 L 33.71,410.09 L 39.73,408.04 L 46.15,406.96 L 52.85,406.56 L 59.63,406.36 L 66.49,406.36 L 73.35,406.36 L 80.22,406.36 L 87.08,406.36 L 93.95,406.36 L 100.77,406.27 L 107.55,406.06 L 114.17,405.46 L 120.62,404.46 L 126.90,403.06 L 132.98,401.18 L 138.94,398.99 L 144.89,396.79 L 150.85,394.60 L 156.97,392.80 L 163.24,391.77 L 169.51,391.61 L 175.54,392.82 L 181.33,395.38 L 186.73,398.93 L 191.66,403.30 L 196.23,408.27 L 200.80,413.24 L 205.37,418.21 L 209.94,423.18 L 214.83,427.67 L 220.12,431.47 L 225.74,434.09 L 231.53,435.20 L 237.21,434.33 L 242.14,431.71 L 246.05,427.46 L 248.26,422.20 L 248.59,416.41 L 247.23,410.60 L 244.65,404.98 L 240.83,399.81 L 236.44,394.88 L 231.81,390.05 L 227.18,385.22 L 222.55,380.39 L 218.55,375.19 L 214.54,369.98 L 210.68,364.72 L 206.82,359.46 L 203.10,354.14 L 199.23,348.87 L 195.79,343.43 L 192.64,337.88 L 189.90,332.14 L 187.46,326.30 L 185.29,320.33 L 183.32,314.28 L 181.58,308.14 L 179.98,301.94 L 178.57,295.66 L 177.39,289.28 L 176.39,282.83 L 175.31,276.42 L 174.27,269.98 L 173.05,263.62 L 171.31,257.48 L 169.31,251.45 L 167.11,245.49 L 164.52,239.70 L 161.64,234.03 L 158.49,228.47 L 154.79,223.14 L 150.99,217.85 L 147.65,212.41 L 145.40,206.86 L 143.93,201.10 L 142.33,195.80 L 140.15,191.39 L 136.91,187.84 L 132.15,184.89 L 126.26,182.69 L 120.31,180.49 L 114.52,177.90 L 108.84,175.04 L 103.26,171.94 L 98.02,168.30 L 93.39,164.03 L 89.35,159.19 L 85.86,153.90 L 82.98,148.22 L 80.33,142.57 L 77.80,136.87 L 75.42,131.12 L 73.18,125.30 L 70.95,119.42 L 69.32,113.35 L 67.72,107.26 L 66.12,101.18 L 64.72,95.01 L 63.52,88.81 L 62.12,82.52 L 61.32,76.16 L 61.12,69.71 L 61.52,63.34 L 62.61,57.09 L 64.73,51.11 L 67.47,45.38 L 70.99,39.97 L 75.14,34.94 L 79.90,30.43 L 85.03,26.55 L 90.59,23.39 L 96.51,21.11 L 102.69,19.46 L 109.05,18.66 L 115.50,18.46 L 122.00,18.76 L 128.42,19.42 L 134.79,20.62 L 141.15,21.82 L 147.52,23.02 L 153.84,24.33 L 160.15,25.67 L 166.52,26.87 L 172.88,28.07 L 179.25,29.27 L 185.66,30.36 L 192.20,31.16 L 198.73,31.96 L 205.24,32.82 L 211.72,33.74 L 218.18,34.72 L 224.54,35.92 L 230.75,37.52 L 236.51,39.88 L 241.59,43.12 L 246.01,47.22 L 249.54,52.31 L 252.41,57.98 L 254.79,63.86 L 256.79,69.90 L 258.19,76.18 L 259.19,82.63 L 259.64,89.24 L 259.64,95.94 L 259.32,102.67 L 258.92,109.37 L 258.21,115.94 L 257.29,122.42 L 255.89,128.70 L 253.72,134.67 L 250.54,139.98 L 246.31,144.07 L 241.09,146.69 L 235.38,147.50 L 229.47,146.61 L 223.68,144.06 L 218.43,140.46 L 213.76,136.00 L 209.50,131.13 L 205.63,125.87 L 202.05,120.49 L 198.61,115.05 L 195.03,109.67 L 191.31,104.35 L 187.31,99.15 L 183.02,94.06 L 178.39,89.23 L 173.44,84.88 L 168.11,81.18 L 162.44,78.58 L 156.47,77.22 L 150.45,77.38 L 144.60,79.06 L 139.22,82.18 L 134.76,86.38 L 131.57,91.69 L 129.66,97.59 L 129.12,103.74 L 129.72,110.02 L 131.12,116.31 L 132.92,122.42 L 134.92,128.46 L 136.92,134.49 L 138.95,140.52 L 141.13,146.48 L 143.33,152.43 L 145.53,158.38 L 147.93,164.25 L 150.38,170.10 L 152.83,175.95 L 155.55,181.69 L 158.41,187.37 L 161.37,193.01 L 164.52,198.56 L 167.82,204.06 L 171.10,209.57 L 174.54,215.00 L 177.98,220.44 L 181.54,225.83 L 185.12,231.21 L 188.86,236.53 L 192.72,241.79 L 196.73,247.00 L 200.75,252.19 L 204.90,257.34 L 209.05,262.49 L 213.33,267.57 L 217.62,272.66 L 222.05,277.69 L 226.62,282.66 L 231.39,287.43 L 236.22,292.06 L 241.19,296.63 L 246.22,301.06 L 251.27,305.44 L 256.30,309.87 L 261.27,314.44 L 266.24,319.01 L 270.56,323.97 L 273.31,329.14 L 274.22,334.46 L 273.47,339.90 L 271.44,345.62 L 269.41,351.34 L 268.49,357.07 L 269.41,362.66 L 272.22,367.57 L 276.71,371.23 L 282.05,373.27 L 287.96,373.54 L 293.95,372.24 L 299.82,369.85 L 305.41,366.77 L 310.88,363.40 L 316.32,359.96 L 321.76,356.52 L 327.20,353.08 L 332.64,349.64 L 338.08,346.20 L 343.52,342.76 L 348.96,339.32 L 354.40,335.88 L 359.83,332.45 L 365.27,329.01 L 370.71,325.57 L 376.15,322.13 L 381.59,318.69 L 387.03,315.25 L 392.47,311.81 L 397.98,308.54 L 403.69,305.77 L 409.61,303.48 L 415.73,302.07 L 421.96,301.76 L 428.09,302.73 L 433.90,304.88 L 438.88,308.41 L 443.34,312.79 L 447.29,317.86 L 450.71,323.30 L 453.59,328.97 L 456.59,334.65 L 458.81,340.47 L 460.54,346.50 L 462.14,352.59 L 463.52,358.77 L 464.32,365.13 L 465.12,371.67 L 465.72,378.28 L 465.58,384.92 L 464.83,391.47 L 463.53,397.80 L 461.55,403.84 L 459.02,409.66 L 456.01,415.27 L 452.57,420.71 L 448.70,425.98 L 444.50,430.98 L 439.72,435.45 L 434.65,439.49 L 429.21,442.93 L 423.52,445.77 L 417.57,447.99 L 411.37,449.59 L 404.92,450.59 L 398.30,451.16 L 391.52,451.36 L 384.65,451.36 L 377.79,451.36 L 370.92,451.36 L 364.06,451.36 L 357.20,451.36 L 350.33,451.36 L 343.47,451.36 L 336.60,451.36 L 329.74,451.36 L 322.88,451.36 L 316.01,451.36 L 309.23,451.16 L 302.45,450.96 L 295.67,450.76 L 288.89,450.56 L 282.19,450.56 L 275.41,450.76 L 268.63,450.96 L 261.85,451.16 L 255.23,450.96 L 248.53,450.56 Z" fill="none" stroke="red" stroke-width="4"/>
</svg>